<?xml version="1.0" encoding="UTF-8"?><svg id="Layer_2" xmlns="http://www.w3.org/2000/svg" viewBox="0 0 285.77 362.06"><defs><style>.cls-1{stroke-linejoin:round;}.cls-1,.cls-2,.cls-3{fill:none;stroke:#000;stroke-width:2.5px;}.cls-1,.cls-3{stroke-linecap:round;}.cls-2,.cls-3{stroke-miterlimit:10;}.cls-3{stroke-dasharray:0 8;}</style></defs><g id="Layer_1-2"><g><path class="cls-3" d="m230.98,1.25c19.57,5.35,32.99,21.31,39.15,38.31"/><path class="cls-2" d="m210.85,354.22c23.49,13.56,53.52,5.51,67.08-17.97,13.56-23.49,5.51-53.52-17.97-67.08-23.49-13.56-53.52-5.51-67.08,17.98-13.56,23.49-5.51,53.52,17.97,67.08"/><polyline class="cls-2" points="210.8 310.6 227.95 327.76 261.39 294.32"/><polyline class="cls-1" points="258.1 254.44 258.1 44.45 224.06 10.4 23.98 10.4 23.98 328.12 171.86 328.12"/><polyline class="cls-3" points="12.35 30.31 1.25 30.31 1.25 348.02 182.73 348.02"/><polygon class="cls-1" points="258.1 44.45 224.06 10.4 224.06 44.45 258.1 44.45"/><line class="cls-1" x1="55.27" y1="88.64" x2="225.73" y2="88.64"/><line class="cls-1" x1="55.27" y1="106.17" x2="225.73" y2="106.17"/><line class="cls-1" x1="55.27" y1="125.72" x2="225.73" y2="125.72"/><line class="cls-1" x1="56.64" y1="42.04" x2="160.55" y2="42.04"/><line class="cls-1" x1="56.64" y1="299.1" x2="113.67" y2="299.1"/><line class="cls-1" x1="56.64" y1="59.43" x2="160.55" y2="59.43"/><line class="cls-1" x1="56.64" y1="170.72" x2="227.22" y2="170.72"/><line class="cls-1" x1="56.64" y1="193.01" x2="227.22" y2="193.01"/><line class="cls-1" x1="56.64" y1="215.29" x2="227.22" y2="215.29"/><rect class="cls-1" x="56.64" y="144.79" width="170.58" height="94.74"/><g><line class="cls-1" x1="97.2" y1="144.79" x2="97.2" y2="239.89"/><line class="cls-1" x1="141.93" y1="144.79" x2="141.93" y2="239.89"/><line class="cls-1" x1="186.65" y1="144.79" x2="186.65" y2="239.89"/></g><path class="cls-1" d="m56.64,289.88c9.21-10.6,16.83-22.59,22.52-35.44-3.23,6.98-4.98,14.63-5.13,22.31-.04,2.28.06,4.6.74,6.78.35,1.12.96,2.29,2.07,2.66,1.62.54,3.17-.9,4.25-2.23,2.17-2.7,4.19-5.51,6.04-8.44-.16,1.18-.33,2.37-.49,3.55-.06.42-.06.95.31,1.15.29.15.64.02.93-.12,1.82-.85,3.63-1.7,5.45-2.56.91,1.6,2.85,2.34,4.68,2.49s3.67-.17,5.51-.13c3.41.09,6.85,1.45,10.15.59"/></g></g></svg>