<?xml version="1.0" encoding="UTF-8"?><svg id="Layer_2" xmlns="http://www.w3.org/2000/svg" viewBox="0 0 129.15 129.15"><defs><style>.cls-1{fill:#090a0f;}.cls-2{fill:none;stroke:#fff;stroke-linecap:round;stroke-linejoin:round;stroke-width:2px;}</style></defs><g id="Layer_1-2"><path class="cls-1" d="m64.57,129.15c35.66,0,64.57-28.91,64.57-64.57S100.24,0,64.57,0,0,28.91,0,64.58s28.91,64.57,64.57,64.57"/><g><path class="cls-2" d="m39.66,30.45h-4.77c-2.38,0-4.77,2.38-4.77,4.77v2.38"/><path class="cls-2" d="m99.26,70.38v-35.16c0-2.38-2.38-4.77-4.77-4.77h-4.77"/><path class="cls-2" d="m94.49,42.37H30.12v50.06c0,2.38,2.38,4.77,4.77,4.77h38.14"/><path class="cls-2" d="m49.19,35.22c0,1.32-1.07,2.38-2.38,2.38h0c-1.32,0-2.38-1.07-2.38-2.38v-4.77c0-1.32,1.07-2.38,2.38-2.38h0c1.32,0,2.38,1.07,2.38,2.38v4.77Z"/><path class="cls-2" d="m61.11,35.22c0,1.32-1.07,2.38-2.38,2.38h0c-1.32,0-2.38-1.07-2.38-2.38v-4.77c0-1.32,1.07-2.38,2.38-2.38h0c1.32,0,2.38,1.07,2.38,2.38v4.77Z"/><path class="cls-2" d="m73.03,35.22c0,1.32-1.07,2.38-2.38,2.38h0c-1.32,0-2.38-1.07-2.38-2.38v-4.77c0-1.32,1.07-2.38,2.38-2.38h0c1.32,0,2.38,1.07,2.38,2.38v4.77Z"/><path class="cls-2" d="m84.95,35.22c0,1.32-1.07,2.38-2.38,2.38h0c-1.32,0-2.38-1.07-2.38-2.38v-4.77c0-1.32,1.07-2.38,2.38-2.38h0c1.32,0,2.38,1.07,2.38,2.38v4.77Z"/><rect class="cls-2" x="41.24" y="52.75" width="5.51" height="5.51"/><rect class="cls-2" x="41.24" y="66.52" width="5.51" height="5.51"/><rect class="cls-2" x="55.01" y="52.75" width="5.51" height="5.51"/><rect class="cls-2" x="55.01" y="66.52" width="5.51" height="5.51"/><rect class="cls-2" x="68.78" y="66.52" width="5.51" height="5.51"/><polyline class="cls-2" points="82.55 69.27 82.55 66.52 88.06 66.52 88.06 69.27"/><rect class="cls-2" x="68.78" y="52.75" width="5.51" height="5.51"/><rect class="cls-2" x="41.24" y="80.29" width="5.51" height="5.51"/><rect class="cls-2" x="55.01" y="80.29" width="5.51" height="5.51"/><rect class="cls-2" x="82.55" y="52.75" width="5.51" height="5.51"/><circle class="cls-2" cx="91.05" cy="88.91" r="13.77"/><polyline class="cls-2" points="90.22 84 90.22 89.51 98.48 89.51"/><polyline class="cls-2" points="71.54 85.8 68.78 85.8 68.78 80.29 71.54 80.29"/></g></g></svg>