<?xml version="1.0" encoding="UTF-8"?><svg id="Layer_2" xmlns="http://www.w3.org/2000/svg" viewBox="0 0 129.15 129.15"><defs><style>.cls-1{fill:none;stroke:#fff;stroke-linecap:round;stroke-linejoin:round;stroke-width:3.08px;}.cls-2{fill:#090a0f;}</style></defs><g id="Layer_1-2"><g><path class="cls-2" d="m64.57,129.15c35.66,0,64.57-28.91,64.57-64.57S100.24,0,64.57,0,0,28.91,0,64.58s28.91,64.57,64.57,64.57"/><g><path class="cls-1" d="m89.24,91.98l3.63-3.63-14.75-14.75-7.38,7.38c-3.69,3.69-11.06,3.69-19.36-4.61-8.3-8.3-8.3-15.67-4.61-19.36l-11.06-11.06"/><path class="cls-1" d="m50.46,53.31l3.69-3.69-14.75-14.75-7.38,7.38c-6.46,6.45-8.3,11.99-4.61,19.36,0,0,3.69,9.22,16.6,22.13,12.91,12.91,22.13,16.6,22.13,16.6,6.45,2.77,12.91,1.84,19.36-4.61l-11.06-11.06"/><path class="cls-1" d="m100.61,60.38c.24-8.58-2.92-17.64-9.47-24.19-6.55-6.55-15.6-9.71-24.19-9.47"/><path class="cls-1" d="m92.84,60.38c.2-6.64-2.14-13.64-7.2-18.7-5.06-5.06-12.13-7.3-18.7-7.2"/><path class="cls-1" d="m85.07,60.38c0-4.64-1.38-9.66-4.92-13.2-3.54-3.54-8.57-4.92-13.2-4.92"/></g></g></g></svg>