<?xml version="1.0" encoding="UTF-8"?><svg id="uuid-61cf1105-e87e-4e1e-8a32-2c8412dde267" xmlns="http://www.w3.org/2000/svg" viewBox="0 0 67.58 67.58"><defs><style>.uuid-e6a62df7-6b4c-4b57-8688-a8e369d47d48{stroke:#0c9;}.uuid-e6a62df7-6b4c-4b57-8688-a8e369d47d48,.uuid-e60af7c6-ecac-499d-8dd1-2815249adcdf{fill:none;stroke-linecap:round;stroke-linejoin:round;stroke-width:1.5px;}.uuid-e60af7c6-ecac-499d-8dd1-2815249adcdf{stroke:#fff;}</style></defs><g id="uuid-2d45d42e-8439-43be-b803-41f7bc6a2a7e"><g><path class="uuid-e60af7c6-ecac-499d-8dd1-2815249adcdf" d="m62.41,17.27c2.9,5.02,4.43,10.72,4.43,16.52,0,18.25-14.79,33.04-33.04,33.04-8.43,0-16.53-3.22-22.66-9"/><path class="uuid-e60af7c6-ecac-499d-8dd1-2815249adcdf" d="m57.17,20.29c2.37,4.1,3.62,8.76,3.62,13.5,0,14.91-12.09,27-27,27-6.86,0-13.46-2.61-18.46-7.3"/><polyline class="uuid-e60af7c6-ecac-499d-8dd1-2815249adcdf" points="10.71 60.58 10.71 53.17 18.12 53.17"/><path class="uuid-e60af7c6-ecac-499d-8dd1-2815249adcdf" d="m5.18,50.31c-2.9-5.02-4.43-10.72-4.43-16.52C.75,15.54,15.54.75,33.79.75c8.43,0,16.53,3.22,22.66,9"/><path class="uuid-e60af7c6-ecac-499d-8dd1-2815249adcdf" d="m10.41,47.29c-2.37-4.1-3.62-8.76-3.62-13.5,0-5.28,1.52-10.21,4.14-14.37m8.49-8.49c4.16-2.62,9.09-4.14,14.37-4.14,6.86,0,13.46,2.61,18.46,7.3"/><polyline class="uuid-e60af7c6-ecac-499d-8dd1-2815249adcdf" points="56.87 7.01 56.87 14.42 49.46 14.42"/><line class="uuid-e60af7c6-ecac-499d-8dd1-2815249adcdf" x1="14.7" y1="14.7" x2="14.7" y2="14.7"/><path class="uuid-e6a62df7-6b4c-4b57-8688-a8e369d47d48" d="m27.08,19.44c0,3.71-3.01,6.72-6.72,6.72,0,10.28,1.72,20.18,13.43,23.32,11.71-3.14,13.43-13.05,13.43-23.32-3.71,0-6.72-3.01-6.72-6.72h-13.43Z"/><polyline class="uuid-e6a62df7-6b4c-4b57-8688-a8e369d47d48" points="28.53 34.82 32.46 38.75 40.46 30.71"/></g></g></svg>