<?xml version="1.0" encoding="UTF-8"?><svg id="Layer_2" xmlns="http://www.w3.org/2000/svg" viewBox="0 0 129.15 129.15"><defs><style>.cls-1{fill:#090a0f;}.cls-2{fill:none;stroke:#fff;stroke-linecap:round;stroke-linejoin:round;stroke-width:2px;}</style></defs><g id="Layer_1-2"><path class="cls-1" d="m64.57,129.15c35.66,0,64.57-28.91,64.57-64.57S100.24,0,64.57,0,0,28.91,0,64.58s28.91,64.57,64.57,64.57"/><g><polygon class="cls-2" points="93.11 94.78 93.11 34.41 85.87 27.17 43.29 27.17 43.29 94.78 93.11 94.78"/><polyline class="cls-2" points="39.68 33.57 37.19 33.57 37.19 101.18 87.01 101.18 87.01 98.39"/><polygon class="cls-2" points="93.11 34.41 85.87 27.17 85.87 34.41 93.11 34.41"/><path class="cls-2" d="m61.7,75.66c7.36,4.25,16.77,1.73,21.02-5.63,4.25-7.36,1.73-16.77-5.63-21.02-7.36-4.25-16.77-1.73-21.02,5.63-4.25,7.36-1.73,16.77,5.63,21.02"/><polyline class="cls-2" points="61.68 61.99 67.06 67.36 77.54 56.88"/></g></g></svg>