<?xml version="1.0" encoding="UTF-8"?><svg id="uuid-e4666537-56cf-4fce-902f-19ee2ca601de" xmlns="http://www.w3.org/2000/svg" viewBox="0 0 99.44 99.44"><defs><style>.uuid-787b848e-eea8-4d05-a7d6-6634dfe14911{fill:none;stroke:#000;stroke-linecap:round;stroke-linejoin:round;stroke-width:2px;}</style></defs><g id="uuid-c091671c-65be-4ab0-8c79-4cf70e8764b5"><g><path class="uuid-787b848e-eea8-4d05-a7d6-6634dfe14911" d="m61.37,19.95l18.82,18.82c1.58,1.58,1.58,4.13,0,5.71l-29.96,29.96c-1.58,1.58-4.13,1.58-5.71,0l-18.83-18.83"/><path class="uuid-787b848e-eea8-4d05-a7d6-6634dfe14911" d="m57.37,17.62v30c0,2.2-1.78,4-4,4h-30,0c0-1.04.39-2.07,1.18-2.86l29.96-29.96c.79-.79,1.82-1.18,2.85-1.18"/><line class="uuid-787b848e-eea8-4d05-a7d6-6634dfe14911" x1="47.37" y1="55.62" x2="47.37" y2="69.62"/><line class="uuid-787b848e-eea8-4d05-a7d6-6634dfe14911" x1="75.37" y1="41.62" x2="61.37" y2="41.62"/><line class="uuid-787b848e-eea8-4d05-a7d6-6634dfe14911" x1="23.37" y1="75.62" x2="37.37" y2="75.62"/><line class="uuid-787b848e-eea8-4d05-a7d6-6634dfe14911" x1="23.37" y1="69.62" x2="31.37" y2="69.62"/><line class="uuid-787b848e-eea8-4d05-a7d6-6634dfe14911" x1="23.37" y1="63.62" x2="27.37" y2="63.62"/></g><circle class="uuid-787b848e-eea8-4d05-a7d6-6634dfe14911" cx="49.72" cy="49.72" r="48.72"/></g></svg>