<?xml version="1.0" encoding="UTF-8"?><svg id="Layer_2" xmlns="http://www.w3.org/2000/svg" viewBox="0 0 63.77 53.32"><defs><style>.cls-1,.cls-2{fill:none;stroke:#000;stroke-linecap:round;stroke-linejoin:round;stroke-width:2px;}.cls-2{stroke-dasharray:0 0 3.88 3.88;}</style></defs><g id="Layer_1-2"><g><polyline class="cls-1" points="47.45 23.3 47.45 52.32 43.45 52.32 43.45 32.6 37.53 32.6 37.53 52.32 33.45 52.32 33.45 38.32 27.45 38.32 27.45 52.32 23.45 52.32 23.45 35.56 17.45 35.56 17.45 52.32 13.45 52.32 13.45 43.24 7.45 43.24 7.45 52.32 1.45 52.32"/><polyline class="cls-1" points="59.45 52.32 53.45 52.32 53.45 23.3"/></g><g><line class="cls-1" x1="38.39" y1="19.73" x2="40.89" y2="19.73"/><line class="cls-2" x1="44.77" y1="19.73" x2="58.33" y2="19.73"/><line class="cls-1" x1="60.27" y1="19.73" x2="62.77" y2="19.73"/></g><g><path d="m4.49,24.68c-.81,0-1.53-.1-2.18-.3-.65-.2-1.26-.56-1.85-1.06-.15-.13-.27-.27-.35-.43-.08-.16-.12-.32-.12-.48,0-.26.1-.5.29-.7.19-.2.43-.3.72-.3.22,0,.41.07.59.21.44.36.87.63,1.3.81s.96.28,1.6.28c.43,0,.82-.07,1.17-.2.36-.13.65-.31.86-.54.22-.22.33-.48.33-.77,0-.35-.1-.64-.31-.88s-.52-.45-.95-.61c-.43-.17-.97-.3-1.62-.39-.62-.09-1.17-.23-1.64-.42-.47-.19-.87-.43-1.18-.73s-.56-.64-.72-1.04c-.16-.4-.24-.84-.24-1.34,0-.75.19-1.39.58-1.92s.91-.93,1.56-1.21c.66-.28,1.38-.41,2.18-.41.75,0,1.44.11,2.08.34.64.22,1.16.51,1.56.86.33.26.5.57.5.92,0,.25-.1.48-.29.69-.2.21-.43.31-.69.31-.17,0-.33-.05-.47-.16-.18-.16-.43-.31-.74-.46-.31-.14-.64-.26-.98-.36-.35-.1-.67-.15-.97-.15-.5,0-.91.06-1.25.19-.34.13-.6.3-.77.52-.17.22-.26.47-.26.76,0,.35.1.63.3.86s.49.4.87.54c.38.13.83.25,1.36.35.69.13,1.3.28,1.82.45.52.17.96.39,1.3.67.35.27.61.61.78,1.02s.26.91.26,1.49c0,.75-.21,1.39-.62,1.94s-.96.96-1.63,1.24c-.67.29-1.4.43-2.19.43Zm1.24.93c0,.3-.1.55-.3.75-.2.2-.45.3-.75.3s-.53-.1-.73-.3c-.2-.2-.29-.45-.29-.75v-13.89c0-.3.1-.55.3-.75s.45-.3.75-.3.54.1.73.3c.19.2.28.45.28.75v13.89Z"/><path d="m13.67,24.68c-.43,0-.88-.07-1.37-.2-.48-.13-.88-.33-1.19-.58-.15-.13-.27-.29-.35-.49s-.13-.39-.13-.58c0-.2.08-.38.25-.55.17-.17.41-.26.72-.26.21,0,.47.11.78.33.18.12.39.22.6.31.22.09.44.14.67.14.48,0,.93-.11,1.34-.33.41-.22.74-.51.99-.88.25-.37.37-.77.37-1.19s-.1-.81-.3-1.12c-.2-.31-.47-.55-.79-.73-.33-.17-.68-.26-1.06-.26-.36,0-.67.06-.93.17s-.51.23-.73.35c-.22.12-.44.18-.66.18-.38,0-.66-.08-.85-.25-.18-.17-.3-.37-.35-.6-.05-.23-.06-.44-.03-.62l.54-4.29c.05-.24.16-.44.35-.6.19-.16.42-.23.68-.23h4.99c.28,0,.51.09.69.28s.28.41.28.69-.09.49-.28.67-.41.27-.69.27h-4.46l.19-.16-.47,3.59-.22-.66c.07-.12.22-.23.45-.33.23-.1.5-.19.79-.27.3-.07.59-.11.88-.11.77,0,1.46.18,2.07.53.61.35,1.09.83,1.44,1.43.35.6.53,1.29.53,2.05,0,.6-.13,1.16-.38,1.68s-.6.97-1.05,1.36c-.44.39-.95.7-1.52.92s-1.17.33-1.81.33Z"/><path d="m22.01,12.4c.16,0,.33.04.51.13.18.09.31.2.41.34l4.2,6.46-.86-.03,4.3-6.43c.22-.31.5-.47.85-.47.28,0,.52.1.74.29.22.2.33.45.33.76v10c0,.3-.1.55-.29.75-.2.2-.46.3-.78.3s-.58-.1-.79-.3c-.2-.2-.3-.45-.3-.75v-8.14l.67.16-3.52,5.37c-.1.13-.23.24-.39.33-.16.09-.31.13-.48.12-.15.01-.3-.03-.46-.12s-.28-.2-.39-.33l-3.3-5.22.45-.92v8.74c0,.3-.09.55-.28.75-.18.2-.43.3-.73.3s-.52-.1-.71-.3c-.18-.2-.28-.45-.28-.75v-10c0-.29.11-.54.32-.74s.47-.31.77-.31Z"/></g><polyline class="cls-1" points="53.68 16.45 53.68 9 58.68 9 50.68 1 42.68 9 47.68 9 47.68 16.45"/></g></svg>