<?xml version="1.0" encoding="UTF-8"?><svg id="Layer_2" xmlns="http://www.w3.org/2000/svg" viewBox="0 0 129.15 129.15"><defs><style>.cls-1{fill:#090a0f;}.cls-2{fill:none;stroke:#fff;stroke-linecap:round;stroke-linejoin:round;stroke-width:2.93px;}</style></defs><g id="Layer_1-2"><g><path class="cls-1" d="m64.57,129.15c35.66,0,64.57-28.91,64.57-64.57S100.24,0,64.57,0,0,28.91,0,64.58s28.91,64.57,64.57,64.57"/><path class="cls-2" d="m49.42,25.59c0-.86-.69-1.55-1.54-1.55s-1.54.69-1.54,1.55.69,1.55,1.54,1.55,1.54-.69,1.54-1.55Zm9.27,0c0-5.98-4.84-10.83-10.81-10.83s-10.82,4.85-10.82,10.83c0,3.78,3.12,8.8,4.63,10.83l6.18,7.73,6.18-7.73c1.52-1.74,4.63-7.09,4.63-10.83Zm-30.63,35.72c4.97-.23,10.85.7,9.05,2.5-2.66,2.67-1.33,13.34,4,9.34,5.33-4,7.99-9.34,6.66-13.34-1.33-4,9.32-5.33,9.32,1.33s-2.66,5.33-3.99,9.33c-1.33,4,1.33,4,2.66,5.33,1.33,1.33,5.33,4,1.33,13.34-2.97,6.95,4.17,12.08,9.33,15.34,21.33,0,38.63-17.31,38.63-38.67,0-1.82-.13-3.61-.37-5.36m-.97-4.77c-4.93,2.1-12.77,3.06-14.65,2.12-2.67-1.33-2.67-8-7.38-8.21-1.88-.08-3.99,8-6.66,9.34-2.66,1.33-3.99-4-6.66-8-2.66-4,4-8,6.66-8s2.67-6.67,2.67-8-2.61-2.9-1.8-6.62c-3.03-.77-6.2-1.17-9.47-1.17-.53,0-1.05,0-1.58.03m-27.44,13.26c-3.46,3.4-7.35,11-8.47,16.04m54.8,12c-2.98,0-3.99,5.33-6.66,4-2.66-1.33-5.33,1.33-2.66,2.67,2.66,1.33,5.33,2.67,6.66,4,1.33,1.33,6.66,1.33,7.99-2.67,1.33-4,6.66-5.33,3.99-8-2.66-2.67-7.99,0-9.32,0Zm19.97-12.79c-3.15-11.67-11.63-21.16-22.66-25.68m-52.99,31.3c-.19,1.55-.27,2.9-.27,4.5,0,18.15,12.49,33.38,29.33,37.54"/></g></g></svg>