<?xml version="1.0" encoding="utf-8"?>
<!-- Generator: Adobe Illustrator 27.1.1, SVG Export Plug-In . SVG Version: 6.00 Build 0)  -->
<svg version="1.1" id="Layer_2_00000085239564792852442970000013756214385606394012_"
	 xmlns="http://www.w3.org/2000/svg" xmlns:xlink="http://www.w3.org/1999/xlink" x="0px" y="0px" viewBox="0 0 142.9 41.5"
	 style="enable-background:new 0 0 142.9 41.5;" xml:space="preserve">
<style type="text/css">
	.st0{fill:url(#SVGID_1_);}
	.st1{fill:#FFFFFF;}
	.st2{fill:#004346;}
</style>
<radialGradient id="SVGID_1_" cx="122.2175" cy="20.6674" r="20.4989" gradientUnits="userSpaceOnUse">
	<stop  offset="0" style="stop-color:#FFCB05"/>
	<stop  offset="0.5" style="stop-color:#FFCB05"/>
	<stop  offset="0.59" style="stop-color:#FFCB05;stop-opacity:0.78"/>
	<stop  offset="0.7" style="stop-color:#FFCB05;stop-opacity:0.5"/>
	<stop  offset="0.8" style="stop-color:#FFCB05;stop-opacity:0.29"/>
	<stop  offset="0.89" style="stop-color:#FFCB05;stop-opacity:0.13"/>
	<stop  offset="0.96" style="stop-color:#FFCB05;stop-opacity:4.000000e-02"/>
	<stop  offset="1" style="stop-color:#FFCB05;stop-opacity:0"/>
</radialGradient>
<circle class="st0" cx="122.1" cy="20.7" r="20.7"/>
<path class="st1" d="M122.2,31c-5.7,0-10.4-4.6-10.4-10.4s4.6-10.4,10.4-10.4s10.4,4.6,10.4,10.4S127.9,31,122.2,31z"/>
<path class="st2" d="M0.4,17.1c0,2.4,1.4,3.5,4.3,4.1L7,21.8c2.6,0.6,3.2,1.2,3.2,2.5c0,1.5-1.4,2.5-3.8,2.5s-3.9-1.1-4-3.3H0
	c0,3.5,2.5,5.4,6.3,5.4c4.2,0,6.3-2.1,6.3-4.9c0-2.5-1.5-3.7-4-4.2l-2.4-0.5c-2.7-0.6-3.5-0.9-3.5-2.3s1-2.4,3.2-2.4
	c2.7,0,3.5,1.2,3.7,2.9h2.4c0-3.4-2.6-5-6-5C2.2,12.3,0.4,14.5,0.4,17.1 M13.7,12.7v9.4c0,4.8,2.3,6.7,6.2,6.7s6.2-2,6.2-6.7v-9.4
	h-2.6v9.7c0,3.1-1.3,4.3-3.8,4.3c-2.2,0-3.5-1.3-3.5-4.3v-9.7L13.7,12.7L13.7,12.7z M27.9,12.7v15.7h2.4V16.2l7.5,12.2h2.7V12.7
	h-2.3v12.1l-7.4-12.1L27.9,12.7L27.9,12.7z M55.6,17.6c-0.3-3.1-2.8-5.2-6.5-5.2c-4.6,0-7.3,3.3-7.3,8.1c0,5.6,3.1,8.3,7.1,8.3
	c3.5,0.2,6.6-2.5,6.8-6.1h-2.4c-0.5,2.5-1.9,3.9-4.2,3.9c-2.6,0-4.7-1.7-4.7-5.9s1.9-6.2,4.7-6.2c2.4,0,3.6,1.2,4.1,3.1L55.6,17.6
	L55.6,17.6z M56.7,20.6c0,5.4,3.1,8.3,7.6,8.3c4.8,0,7.7-3.4,7.7-8.5c0-5.7-3.3-8.1-7.6-8.1S56.7,15.2,56.7,20.6 M59.3,20.7
	c0-4,2.1-6.2,5.1-6.2c2.8,0,5,2,5,5.9c0,4.2-2,6.3-4.9,6.3C61.3,26.7,59.3,24.7,59.3,20.7 M75.7,14.8h4.7c1.9,0,2.8,0.7,2.8,2.5
	s-1,2.5-3,2.5h-4.5L75.7,14.8L75.7,14.8z M73.2,12.7v15.7h2.5v-6.5h4.3c2.1,0,2.8,0.6,2.9,2.4l0.1,2.2c0,0.6,0.1,1.3,0.3,1.9H86
	c-0.4-0.8-0.6-1.8-0.5-2.7l0-1.7c0-1.8-0.5-2.6-1.9-3.2c1.5-0.6,2.4-2.1,2.3-3.7c0-2.6-1.6-4.3-5.2-4.3L73.2,12.7L73.2,12.7z
	 M87.3,12.7v15.7h2.5v-6.3h4.4c3.2,0,4.9-1.8,4.9-4.7s-1.9-4.7-4.8-4.7C94.3,12.7,87.3,12.7,87.3,12.7z M89.8,14.8h3.8
	c2.1,0,2.9,0.9,2.9,2.6s-1,2.6-2.9,2.6h-3.8V14.8z"/>
</svg>
