<?xml version="1.0" encoding="UTF-8"?><svg id="Layer_2" xmlns="http://www.w3.org/2000/svg" viewBox="0 0 156.37 30.5"><g id="Layer_1-2"><g><path id="path53647" d="m139.03.87c.22,2.45-1.84,6.03-3.15,6.77l-.87-.7c1.27-1.42,1.11-5.67,0-6.82l.04-.13c.97,0,2.45.3,3.07.48.58.17.61.22.91.39"/><path id="path53651" d="m156.37,22.32c0,4.72-3.45,8.13-9.35,8.13-2.31,0-5.46-.48-6.86-1.18,0,0-.13-.2-.13-1.01,0-2.01.18-5.14.22-5.72h.96c.13.61.3,1.5.57,2.45.78,2.7,3.06,3.71,5.64,3.71,3.07,0,5.15-1.54,5.15-4.54,0-2.23-1.49-3.5-4.15-5.55l-1.7-1.32c-3.46-2.66-5.9-5.26-5.9-8.95,0-4.13,3.31-7.39,8.83-7.39,2.27,0,4.67.44,5.54.66.33.08.53.14.53.39,0,.48-.18,2.61-.18,5.46h-.91c-.89-3.12-1.48-4.81-5.37-4.81-3.11,0-4.81,1.9-4.81,4.02,0,1.83,1.54,3.67,4.37,5.77l1.71,1.27c4.13,3.08,5.85,5.03,5.85,8.61"/><path id="path53655" d="m92.62,16.86c-.55,1.32-.57,2.47-.57,3.67v2.97c0,.58-.02,1.92.09,3.45.08,1.06.43,1.86,1.53,2.01.51.07,1.76.13,2.28.13v.92h-12.28v-.92c.51,0,1.98-.06,2.31-.13.39-.08,1.23-.25,1.36-2.01.11-1.53.13-2.87.13-3.45v-2.97c0-1.97-.36-2.78-.83-3.84-.26-.58-5.18-9.42-6.46-11.32-.92-1.35-1.79-2.14-2.49-2.53-.48-.27-1.59-.48-2.1-.48v-.88h7.65s.14.49,1.22,2.76c.53,1.09,5.49,10.42,6.08,11.45,0,0,5.14-9.76,7.47-14.2h5.51v.88c-1.75.06-2.73.63-3.93,2.09-1.2,1.47-6.29,10.84-6.95,12.41"/><path id="path53659" d="m44,23.85s-.84,4.19-1.14,5.24c-.22.81-.35.92-.35.92h-19.58v-.92c.55,0,1.77-.11,2.1-.18.73-.15,1.05-.68,1.18-1.75.16-1.27.18-4.41.18-7.78v-7.34c0-5.55-.02-6.34-.09-7.51-.08-1.24-.33-1.83-1.53-2.09-.3-.06-1.27-.09-1.75-.09v-.88h7.99v3.06s-.04,1.96-.04,7.51v7.34c0,5.08-.02,7.2.75,7.87.63.54,2.22.78,5.07.78,2.6,0,3.5-.13,4.37-1,.74-.75,1.11-1.56,1.53-3.19h1.31Z"/><path id="path53663" d="m21.06,23.85s-.84,4.19-1.14,5.24c-.22.81-.35.92-.35.92H0v-.92c.55,0,1.77-.11,2.1-.18.73-.15,1.04-.68,1.18-1.75.16-1.27.18-4.41.18-7.78v-7.34c0-5.55-.02-6.34-.09-7.51-.07-1.24-.32-1.83-1.52-2.09-.3-.06-1.28-.09-1.75-.09v-.88h8v3.06s-.04,1.96-.04,7.51v7.34c0,5.08-.02,7.2.74,7.87.63.54,2.22.78,5.07.78,2.59,0,3.49-.13,4.37-1,.75-.75,1.11-1.56,1.53-3.19h1.31Z"/><path id="path53667" d="m75.15,15.07c0,8.52-5.56,15.43-14.81,15.43-10.24,0-14.33-7.97-14.33-14.77S50.31.96,60.69.96c9.14,0,14.46,5.74,14.46,14.11m-5.16,1.36c0-8.41-4.39-13.72-10.31-13.72-4.39,0-8.65,3.33-8.65,11.88,0,7.25,3.71,14.03,10.31,14.03,5.42,0,8.65-4.2,8.65-12.19"/><path id="path53671" d="m134.09,15.11c0,5.03-1.93,8.8-3.98,10.88-1.68,1.72-5.12,4.02-11.88,4.02h-14.16v-.92c2.45-.08,3.45,0,3.67-2.05.17-1.56.13-5.76.13-7.65v-7.34c0-5.55-.02-6.33-.09-7.51-.08-1.24-.37-1.83-1.57-2.09-.29-.06-1.41-.09-1.92-.09v-.88h11.58c4.57,0,10.65,0,14.64,4.15,1.83,1.91,3.58,4.96,3.58,9.48m-4.89,1.32c0-9.24-5.85-13.24-14.02-13.24-.76,0-1.92.12-2.23.26-.34.16-.43.37-.44.79-.03,1.29-.08,4.39-.08,7.39v10.57c0,3.88.22,4.69.74,5.2.61.6,1.86,1.18,4.5,1.18,7.89,0,11.54-4.06,11.54-12.15"/></g></g></svg>