<?xml version="1.0" encoding="UTF-8"?><svg id="Layer_2" xmlns="http://www.w3.org/2000/svg" xmlns:xlink="http://www.w3.org/1999/xlink" viewBox="0 0 142.88 41.46"><defs><style>.cls-1{fill:#004346;}.cls-2{fill:url(#radial-gradient);}</style><radialGradient id="radial-gradient" cx="-376.42" cy="-3461.9" fx="-376.42" fy="-3461.9" r="5.96" gradientTransform="translate(1432.35 -12029.11) scale(3.48 -3.48)" gradientUnits="userSpaceOnUse"><stop offset="0" stop-color="#ffcb05"/><stop offset=".5" stop-color="#ffcb05"/><stop offset=".59" stop-color="#ffcb05" stop-opacity=".78"/><stop offset=".7" stop-color="#ffcb05" stop-opacity=".5"/><stop offset=".8" stop-color="#ffcb05" stop-opacity=".29"/><stop offset=".89" stop-color="#ffcb05" stop-opacity=".13"/><stop offset=".96" stop-color="#ffcb05" stop-opacity=".04"/><stop offset="1" stop-color="#ffcb05" stop-opacity="0"/></radialGradient></defs><g id="Layer_1-2"><g><path class="cls-1" d="m.44,17.15c0,2.4,1.4,3.46,4.32,4.13l2.25.48c2.64.59,3.17,1.2,3.17,2.5,0,1.55-1.36,2.51-3.8,2.51s-3.87-1.1-4.03-3.34H0c0,3.46,2.47,5.44,6.34,5.44,4.24,0,6.3-2.14,6.3-4.92,0-2.5-1.49-3.7-4-4.24l-2.36-.54c-2.71-.59-3.46-.94-3.46-2.31s.98-2.41,3.22-2.41c2.71,0,3.52,1.23,3.71,2.88h2.36c0-3.39-2.64-5.03-5.97-5.03-3.9,0-5.75,2.23-5.75,4.85m13.28-4.44v9.39c0,4.79,2.27,6.74,6.24,6.74s6.23-1.99,6.23-6.74v-9.39h-2.59v9.69c0,3.08-1.31,4.27-3.78,4.27-2.21,0-3.54-1.27-3.54-4.27v-9.69h-2.55Zm14.19,0v15.7h2.37v-12.2l7.52,12.2h2.69v-15.71h-2.35v12.14l-7.37-12.14h-2.86Zm27.73,4.88c-.26-3.15-2.82-5.25-6.51-5.25-4.57,0-7.32,3.33-7.32,8.15,0,5.62,3.08,8.34,7.13,8.34,3.54.18,6.56-2.51,6.8-6.05h-2.44c-.5,2.5-1.88,3.85-4.18,3.85-2.59,0-4.7-1.73-4.7-5.88s1.94-6.25,4.7-6.25c2.4,0,3.63,1.16,4.09,3.08h2.44Zm1.1,3.02c0,5.36,3.08,8.27,7.57,8.27,4.77,0,7.65-3.39,7.65-8.51,0-5.67-3.33-8.11-7.64-8.11s-7.58,2.93-7.58,8.35m2.59.09c0-4.04,2.1-6.23,5.11-6.23,2.78,0,5.01,1.99,5.01,5.93,0,4.18-2.03,6.28-4.94,6.28-3.2,0-5.18-2.01-5.18-5.97m16.46-5.86h4.72c1.86,0,2.82.74,2.82,2.47s-.96,2.51-3.04,2.51h-4.51v-4.98Zm-2.5-2.12v15.69h2.5v-6.54h4.32c2.07,0,2.8.63,2.87,2.4l.11,2.21c0,.65.09,1.3.29,1.93h2.69c-.39-.84-.56-1.76-.5-2.69l-.04-1.73c-.04-1.81-.5-2.59-1.94-3.21,1.47-.64,2.39-2.14,2.3-3.74,0-2.59-1.6-4.32-5.18-4.32h-7.39Zm14.06,0v15.69h2.52v-6.31h4.4c3.24,0,4.92-1.81,4.92-4.72s-1.88-4.66-4.83-4.66h-7.01Zm2.52,2.12h3.85c2.06,0,2.95.86,2.95,2.59s-.96,2.59-2.95,2.59h-3.85v-5.18Z"/><path class="cls-2" d="m122.15,0c-11.45,0-20.73,9.28-20.73,20.73s9.28,20.73,20.73,20.73,20.73-9.28,20.73-20.73S133.6,0,122.15,0Zm0,31.1c-5.72,0-10.37-4.64-10.37-10.37s4.64-10.37,10.37-10.37,10.37,4.64,10.37,10.37-4.64,10.37-10.37,10.37Z"/></g></g></svg>