<?xml version="1.0" encoding="UTF-8"?><svg id="Layer_2" xmlns="http://www.w3.org/2000/svg" viewBox="0 0 155.64 56.64"><defs><style>.cls-1{fill:none;stroke:#000;stroke-miterlimit:10;stroke-width:2px;}</style></defs><g id="Layer_1-2"><g><circle class="cls-1" cx="26.3" cy="26.3" r="25.3"/><g><path d="m10.83,26.59l.86-7.56h8.34v2.46h-5.92l-.37,3.2c.7-.38,1.45-.56,2.24-.56,1.42,0,2.53.44,3.33,1.32.8.88,1.21,2.11,1.21,3.69,0,.96-.2,1.82-.61,2.58-.41.76-.99,1.35-1.74,1.77s-1.65.63-2.68.63c-.9,0-1.73-.18-2.5-.55-.77-.36-1.38-.88-1.82-1.54-.45-.66-.68-1.41-.71-2.26h2.92c.06.62.28,1.1.65,1.45s.86.52,1.46.52c.67,0,1.18-.24,1.54-.72.36-.48.54-1.16.54-2.04s-.21-1.49-.62-1.94c-.42-.45-1-.67-1.77-.67-.7,0-1.27.18-1.71.55l-.29.27-2.35-.58Z"/><path d="m32.41,27.75c0,2.06-.43,3.63-1.28,4.72-.85,1.09-2.1,1.63-3.74,1.63s-2.86-.53-3.72-1.6-1.3-2.6-1.32-4.6v-2.74c0-2.08.43-3.65,1.29-4.73s2.1-1.61,3.72-1.61,2.86.53,3.72,1.6c.86,1.07,1.3,2.6,1.32,4.59v2.74Zm-2.95-3.01c0-1.23-.17-2.13-.51-2.7-.34-.56-.86-.84-1.58-.84s-1.21.27-1.54.8c-.33.54-.51,1.37-.53,2.51v3.62c0,1.21.17,2.12.5,2.7.33.59.86.88,1.59.88s1.24-.28,1.56-.85.49-1.43.5-2.6v-3.54Z"/><path d="m40.48,25.58h3.69v2.67h-3.69v4.17h-2.81v-4.17h-3.7v-2.67h3.7v-3.99h2.81v3.99Z"/></g><g><path d="m64.35,6.5l2.4,6.37,2.39-6.37h1.87v8.31h-1.44v-2.74l.14-3.66-2.46,6.4h-1.03l-2.45-6.4.14,3.66v2.74h-1.44V6.5h1.87Z"/><path d="m76.27,14.81c-.06-.12-.11-.31-.16-.58-.44.46-.98.69-1.62.69s-1.13-.18-1.52-.53c-.39-.35-.59-.79-.59-1.31,0-.66.24-1.16.73-1.52.49-.35,1.19-.53,2.1-.53h.85v-.4c0-.32-.09-.58-.27-.77-.18-.19-.45-.29-.82-.29-.32,0-.57.08-.78.24-.2.16-.3.36-.3.6h-1.39c0-.34.11-.66.34-.95s.53-.53.92-.69c.39-.17.82-.25,1.29-.25.72,0,1.3.18,1.73.54.43.36.65.87.66,1.53v2.79c0,.56.08,1,.23,1.33v.1h-1.42Zm-1.52-1c.27,0,.53-.07.77-.2.24-.13.42-.31.54-.54v-1.16h-.75c-.51,0-.9.09-1.16.27-.26.18-.39.43-.39.76,0,.27.09.48.27.64.18.16.41.24.71.24Z"/><path d="m80.19,8.63l.04.71c.46-.55,1.06-.83,1.8-.83,1.29,0,1.94.74,1.96,2.21v4.08h-1.39v-4c0-.39-.08-.68-.25-.87s-.45-.28-.83-.28c-.56,0-.98.25-1.25.76v4.4h-1.39v-6.18h1.31Z"/><path d="m87.56,12.82l1.26-4.19h1.48l-2.46,7.11c-.38,1.04-1.02,1.56-1.92,1.56-.2,0-.42-.03-.67-.1v-1.08l.26.02c.35,0,.61-.06.79-.19.18-.13.32-.34.42-.64l.2-.53-2.17-6.14h1.5l1.31,4.19Z"/><path d="m97.69,14.81c-.06-.12-.11-.31-.16-.58-.44.46-.98.69-1.62.69s-1.13-.18-1.52-.53c-.39-.35-.59-.79-.59-1.31,0-.66.24-1.16.73-1.52.49-.35,1.19-.53,2.1-.53h.85v-.4c0-.32-.09-.58-.27-.77-.18-.19-.45-.29-.82-.29-.32,0-.57.08-.78.24-.2.16-.3.36-.3.6h-1.39c0-.34.11-.66.34-.95s.53-.53.92-.69c.39-.17.82-.25,1.29-.25.72,0,1.3.18,1.73.54.43.36.65.87.66,1.53v2.79c0,.56.08,1,.23,1.33v.1h-1.42Zm-1.52-1c.27,0,.53-.07.77-.2.24-.13.42-.31.54-.54v-1.16h-.75c-.51,0-.9.09-1.16.27-.26.18-.39.43-.39.76,0,.27.09.48.27.64.18.16.41.24.71.24Z"/><path d="m102.86,13.81c.35,0,.63-.1.86-.3.23-.2.35-.45.37-.75h1.31c-.02.38-.13.74-.36,1.08s-.53.6-.91.79c-.38.19-.8.29-1.24.29-.86,0-1.55-.28-2.05-.84-.51-.56-.76-1.33-.76-2.32v-.14c0-.94.25-1.69.75-2.26.5-.57,1.19-.85,2.05-.85.73,0,1.33.21,1.8.64.46.43.71.99.73,1.69h-1.31c-.01-.35-.14-.65-.36-.87-.23-.23-.51-.34-.86-.34-.45,0-.8.16-1.04.49-.24.33-.37.82-.37,1.48v.22c0,.67.12,1.17.36,1.5.24.33.59.49,1.05.49Z"/><path d="m108.18,7.13v1.5h1.09v1.03h-1.09v3.45c0,.24.05.41.14.51.09.11.26.16.5.16.16,0,.32-.02.49-.06v1.07c-.32.09-.62.13-.91.13-1.07,0-1.6-.59-1.6-1.76v-3.5h-1.02v-1.03h1.02v-1.5h1.39Z"/><path d="m110.34,7.03c0-.21.07-.39.2-.53s.33-.21.58-.21.45.07.58.21c.14.14.21.32.21.53s-.07.38-.21.52c-.14.14-.33.21-.58.21s-.44-.07-.58-.21-.2-.31-.2-.52Zm1.47,7.78h-1.39v-6.18h1.39v6.18Z"/><path d="m114.61,8.63l.04.71c.46-.55,1.06-.83,1.8-.83,1.29,0,1.94.74,1.96,2.21v4.08h-1.39v-4c0-.39-.08-.68-.25-.87s-.45-.28-.83-.28c-.56,0-.98.25-1.25.76v4.4h-1.39v-6.18h1.31Z"/><path d="m119.58,11.67c0-.96.23-1.72.68-2.3.45-.57,1.05-.86,1.79-.86.7,0,1.26.25,1.66.74l.06-.62h1.25v5.99c0,.81-.25,1.45-.76,1.92s-1.18.7-2.04.7c-.45,0-.89-.09-1.33-.28-.43-.19-.76-.44-.98-.74l.66-.83c.43.51.95.76,1.58.76.46,0,.82-.12,1.09-.37s.4-.62.4-1.1v-.42c-.4.45-.93.67-1.6.67-.72,0-1.31-.29-1.77-.86-.46-.57-.69-1.37-.69-2.39Zm1.38.12c0,.62.13,1.11.38,1.46.25.36.6.53,1.05.53.56,0,.97-.24,1.24-.72v-2.72c-.26-.47-.67-.7-1.23-.7-.46,0-.81.18-1.07.54-.25.36-.38.89-.38,1.6Z"/><path d="m133.05,14.81c-.06-.12-.11-.31-.16-.58-.44.46-.98.69-1.62.69s-1.13-.18-1.52-.53c-.39-.35-.59-.79-.59-1.31,0-.66.24-1.16.73-1.52.49-.35,1.19-.53,2.1-.53h.85v-.4c0-.32-.09-.58-.27-.77-.18-.19-.45-.29-.82-.29-.32,0-.57.08-.78.24-.2.16-.3.36-.3.6h-1.39c0-.34.11-.66.34-.95s.53-.53.92-.69c.39-.17.82-.25,1.29-.25.72,0,1.3.18,1.73.54.43.36.65.87.66,1.53v2.79c0,.56.08,1,.23,1.33v.1h-1.42Zm-1.52-1c.27,0,.53-.07.77-.2.24-.13.42-.31.54-.54v-1.16h-.75c-.51,0-.9.09-1.16.27-.26.18-.39.43-.39.76,0,.27.09.48.27.64.18.16.41.24.71.24Z"/><path d="m139.14,13.13c0-.25-.1-.44-.31-.57-.2-.13-.54-.24-1.01-.34-.47-.1-.87-.22-1.18-.38-.69-.33-1.04-.82-1.04-1.46,0-.53.22-.98.67-1.34.45-.36,1.02-.54,1.71-.54.74,0,1.33.18,1.79.55.46.37.68.84.68,1.42h-1.39c0-.27-.1-.49-.3-.67-.2-.18-.46-.26-.79-.26-.3,0-.55.07-.75.21s-.29.33-.29.57c0,.21.09.38.27.5s.54.24,1.08.36c.54.12.97.26,1.28.43.31.17.54.36.69.6.15.23.23.51.23.84,0,.56-.23,1-.69,1.35-.46.34-1.06.52-1.81.52-.51,0-.96-.09-1.35-.27s-.7-.43-.92-.75c-.22-.32-.33-.66-.33-1.03h1.35c.02.33.14.58.37.76.23.18.53.27.91.27s.64-.07.83-.21c.19-.14.29-.32.29-.54Z"/><path d="m64.88,27.84c.35,0,.63-.1.86-.3.23-.2.35-.45.37-.75h1.31c-.02.38-.13.74-.36,1.08s-.53.6-.91.79c-.38.19-.8.29-1.24.29-.86,0-1.55-.28-2.05-.84-.51-.56-.76-1.33-.76-2.32v-.14c0-.94.25-1.69.75-2.26.5-.57,1.19-.85,2.05-.85.73,0,1.33.21,1.8.64.46.43.71.99.73,1.69h-1.31c-.01-.35-.14-.65-.36-.87-.23-.23-.51-.34-.86-.34-.45,0-.8.16-1.04.49-.24.33-.37.82-.37,1.48v.22c0,.67.12,1.17.36,1.5.24.33.59.49,1.05.49Z"/><path d="m68.2,25.69c0-.6.12-1.15.36-1.63.24-.49.58-.86,1.01-1.12.43-.26.93-.39,1.5-.39.83,0,1.51.27,2.03.8s.8,1.25.84,2.13v.33c0,.61-.11,1.15-.35,1.63-.23.48-.57.85-1,1.11-.44.26-.94.39-1.51.39-.87,0-1.57-.29-2.09-.87-.52-.58-.78-1.35-.78-2.32v-.07Zm1.39.12c0,.64.13,1.13.39,1.49.26.36.63.54,1.1.54s.83-.18,1.09-.55.39-.9.39-1.6c0-.62-.13-1.12-.4-1.48s-.63-.55-1.09-.55-.81.18-1.08.54-.4.9-.4,1.61Z"/><path d="m77.29,27.08l1.31-4.42h1.43l-2.14,6.18h-1.2l-2.16-6.18h1.44l1.32,4.42Z"/><path d="m83.62,28.95c-.88,0-1.59-.28-2.14-.83-.55-.55-.82-1.29-.82-2.21v-.17c0-.62.12-1.17.36-1.65.24-.49.57-.86,1-1.13.43-.27.91-.41,1.44-.41.84,0,1.49.27,1.95.8.46.54.69,1.3.69,2.28v.56h-4.04c.04.51.21.91.51,1.21s.67.45,1.13.45c.63,0,1.15-.26,1.55-.77l.75.71c-.25.37-.58.66-.99.86-.41.2-.88.31-1.39.31Zm-.17-5.29c-.38,0-.69.13-.92.4-.23.27-.38.64-.45,1.11h2.64v-.1c-.03-.46-.15-.81-.37-1.05s-.52-.36-.9-.36Z"/><path d="m90.41,23.93c-.18-.03-.37-.04-.57-.04-.64,0-1.06.24-1.28.73v4.22h-1.39v-6.18h1.32l.03.69c.33-.54.8-.8,1.39-.8.2,0,.36.03.49.08v1.3Z"/><path d="m95.56,23.33c.45-.52,1.03-.79,1.72-.79,1.32,0,1.98.75,2,2.25v4.04h-1.39v-3.98c0-.43-.09-.73-.28-.9s-.46-.27-.81-.27c-.56,0-.97.25-1.24.74v4.41h-1.39v-8.77h1.39v3.26Z"/><path d="m100.42,25.69c0-.6.12-1.15.36-1.63.24-.49.58-.86,1.01-1.12.43-.26.93-.39,1.5-.39.83,0,1.51.27,2.03.8s.8,1.25.84,2.13v.33c0,.61-.11,1.15-.35,1.63-.23.48-.57.85-1,1.11-.44.26-.94.39-1.51.39-.87,0-1.57-.29-2.09-.87-.52-.58-.78-1.35-.78-2.32v-.07Zm1.39.12c0,.64.13,1.13.39,1.49.26.36.63.54,1.1.54s.83-.18,1.09-.55.39-.9.39-1.6c0-.62-.13-1.12-.4-1.48s-.63-.55-1.09-.55-.81.18-1.08.54-.4.9-.4,1.61Z"/><path d="m108.81,28.83h-1.39v-8.77h1.39v8.77Z"/><path d="m110.06,25.7c0-.95.22-1.71.66-2.29.44-.58,1.03-.86,1.78-.86.65,0,1.18.23,1.59.68v-3.16h1.39v8.77h-1.26l-.07-.64c-.42.5-.97.75-1.66.75s-1.31-.29-1.75-.87c-.45-.58-.67-1.37-.67-2.38Zm1.39.12c0,.63.12,1.12.36,1.47.24.35.58.53,1.03.53.57,0,.98-.25,1.24-.76v-2.64c-.25-.5-.67-.74-1.23-.74-.45,0-.8.18-1.04.53-.24.36-.37.89-.37,1.61Z"/><path d="m119.64,28.95c-.88,0-1.59-.28-2.14-.83-.55-.55-.82-1.29-.82-2.21v-.17c0-.62.12-1.17.36-1.65.24-.49.57-.86,1-1.13.43-.27.91-.41,1.44-.41.84,0,1.49.27,1.95.8.46.54.69,1.3.69,2.28v.56h-4.04c.04.51.21.91.51,1.21s.67.45,1.13.45c.63,0,1.15-.26,1.55-.77l.75.71c-.25.37-.58.66-.99.86-.41.2-.88.31-1.39.31Zm-.17-5.29c-.38,0-.69.13-.92.4-.23.27-.38.64-.45,1.11h2.64v-.1c-.03-.46-.15-.81-.37-1.05s-.52-.36-.9-.36Z"/><path d="m126.43,23.93c-.18-.03-.37-.04-.57-.04-.64,0-1.06.24-1.28.73v4.22h-1.39v-6.18h1.32l.03.69c.33-.54.8-.8,1.39-.8.2,0,.36.03.49.08v1.3Z"/><path d="m130.77,27.16c0-.25-.1-.44-.31-.57-.2-.13-.54-.24-1.01-.34-.47-.1-.87-.22-1.18-.38-.69-.33-1.04-.82-1.04-1.46,0-.53.22-.98.67-1.34.45-.36,1.02-.54,1.71-.54.74,0,1.33.18,1.79.55.46.37.68.84.68,1.42h-1.39c0-.27-.1-.49-.3-.67-.2-.18-.46-.26-.79-.26-.3,0-.55.07-.75.21s-.29.33-.29.57c0,.21.09.38.27.5s.54.24,1.08.36c.54.12.97.26,1.28.43.31.17.54.36.69.6.15.23.23.51.23.84,0,.56-.23,1-.69,1.35-.46.34-1.06.52-1.81.52-.51,0-.96-.09-1.35-.27s-.7-.43-.92-.75c-.22-.32-.33-.66-.33-1.03h1.35c.02.33.14.58.37.76.23.18.53.27.91.27s.64-.07.83-.21c.19-.14.29-.32.29-.54Z"/><path d="m136.74,28.83v-5.15h-.94v-1.03h.94v-.57c0-.68.19-1.21.57-1.59s.91-.56,1.6-.56c.24,0,.5.04.78.1l-.03,1.08c-.15-.03-.33-.05-.53-.05-.66,0-.99.34-.99,1.02v.55h1.26v1.03h-1.26v5.15h-1.39Z"/><path d="m140.13,25.69c0-.6.12-1.15.36-1.63.24-.49.58-.86,1.01-1.12.43-.26.93-.39,1.5-.39.83,0,1.51.27,2.03.8s.8,1.25.84,2.13v.33c0,.61-.11,1.15-.35,1.63-.23.48-.57.85-1,1.11-.44.26-.94.39-1.51.39-.87,0-1.57-.29-2.09-.87-.52-.58-.78-1.35-.78-2.32v-.07Zm1.39.12c0,.64.13,1.13.39,1.49.26.36.63.54,1.1.54s.83-.18,1.09-.55.39-.9.39-1.6c0-.62-.13-1.12-.4-1.48s-.63-.55-1.09-.55-.81.18-1.08.54-.4.9-.4,1.61Z"/><path d="m150.28,23.93c-.18-.03-.37-.04-.57-.04-.64,0-1.06.24-1.28.73v4.22h-1.39v-6.18h1.32l.03.69c.33-.54.8-.8,1.39-.8.2,0,.36.03.49.08v1.3Z"/><path d="m63.92,41.71h3.77v1.15h-5.22v-8.31h1.44v7.16Z"/><path d="m70.14,42.86h-1.39v-8.77h1.39v8.77Z"/><path d="m71.39,39.72c0-.6.12-1.15.36-1.63.24-.49.58-.86,1.01-1.12.43-.26.93-.39,1.5-.39.83,0,1.51.27,2.03.8s.8,1.25.84,2.13v.33c0,.61-.11,1.15-.35,1.63-.23.48-.57.85-1,1.11-.44.26-.94.39-1.51.39-.87,0-1.57-.29-2.09-.87-.52-.58-.78-1.35-.78-2.32v-.07Zm1.39.12c0,.64.13,1.13.39,1.49.26.36.63.54,1.1.54s.83-.18,1.09-.55.39-.9.39-1.6c0-.62-.13-1.12-.4-1.48s-.63-.55-1.09-.55-.81.18-1.08.54-.4.9-.4,1.61Z"/><path d="m80.47,40.88l1.26-4.19h1.48l-2.46,7.11c-.38,1.04-1.02,1.56-1.92,1.56-.2,0-.42-.03-.67-.1v-1.08l.26.02c.35,0,.61-.06.79-.19.18-.13.32-.34.42-.64l.2-.53-2.17-6.14h1.5l1.31,4.19Z"/><path d="m83.74,39.73c0-.95.22-1.71.66-2.29.44-.58,1.03-.86,1.78-.86.65,0,1.18.23,1.59.68v-3.16h1.39v8.77h-1.26l-.07-.64c-.42.5-.97.75-1.66.75s-1.31-.29-1.75-.87c-.45-.58-.67-1.37-.67-2.38Zm1.39.12c0,.63.12,1.12.36,1.47.24.35.58.53,1.03.53.57,0,.98-.25,1.24-.76v-2.64c-.25-.5-.67-.74-1.23-.74-.45,0-.8.18-1.04.53-.24.36-.37.89-.37,1.61Z"/><path d="m94.06,41.18c0-.25-.1-.44-.31-.57-.2-.13-.54-.24-1.01-.34-.47-.1-.87-.22-1.18-.38-.69-.33-1.04-.82-1.04-1.46,0-.53.22-.98.67-1.34.45-.36,1.02-.54,1.71-.54.74,0,1.33.18,1.79.55.46.37.68.84.68,1.42h-1.39c0-.27-.1-.49-.3-.67-.2-.18-.46-.26-.79-.26-.3,0-.55.07-.75.21s-.29.33-.29.57c0,.21.09.38.27.5s.54.24,1.08.36c.54.12.97.26,1.28.43.31.17.54.36.69.6.15.23.23.51.23.84,0,.56-.23,1-.69,1.35-.46.34-1.06.52-1.81.52-.51,0-.96-.09-1.35-.27s-.7-.43-.92-.75c-.22-.32-.33-.66-.33-1.03h1.35c.02.33.14.58.37.76.23.18.53.27.91.27s.64-.07.83-.21c.19-.14.29-.32.29-.54Z"/><path d="m99.28,39.72c0-.6.12-1.15.36-1.63.24-.49.58-.86,1.01-1.12.43-.26.93-.39,1.5-.39.83,0,1.51.27,2.03.8s.8,1.25.84,2.13v.33c0,.61-.11,1.15-.35,1.63-.23.48-.57.85-1,1.11-.44.26-.94.39-1.51.39-.87,0-1.57-.29-2.09-.87-.52-.58-.78-1.35-.78-2.32v-.07Zm1.39.12c0,.64.13,1.13.39,1.49.26.36.63.54,1.1.54s.83-.18,1.09-.55.39-.9.39-1.6c0-.62-.13-1.12-.4-1.48s-.63-.55-1.09-.55-.81.18-1.08.54-.4.9-.4,1.61Z"/><path d="m106.68,42.86v-5.15h-.94v-1.03h.94v-.57c0-.68.19-1.21.57-1.59s.91-.56,1.6-.56c.24,0,.5.04.78.1l-.03,1.08c-.15-.03-.33-.05-.53-.05-.66,0-.99.34-.99,1.02v.55h1.26v1.03h-1.26v5.15h-1.39Z"/><path d="m114.83,41.71h3.77v1.15h-5.22v-8.31h1.44v7.16Z"/><path d="m119.31,39.72c0-.6.12-1.15.36-1.63.24-.49.58-.86,1.01-1.12.43-.26.93-.39,1.5-.39.83,0,1.51.27,2.03.8s.8,1.25.84,2.13v.33c0,.61-.11,1.15-.35,1.63-.23.48-.57.85-1,1.11-.44.26-.94.39-1.51.39-.87,0-1.57-.29-2.09-.87-.52-.58-.78-1.35-.78-2.32v-.07Zm1.39.12c0,.64.13,1.13.39,1.49.26.36.63.54,1.1.54s.83-.18,1.09-.55.39-.9.39-1.6c0-.62-.13-1.12-.4-1.48s-.63-.55-1.09-.55-.81.18-1.08.54-.4.9-.4,1.61Z"/><path d="m127.52,36.69l.04.71c.46-.55,1.06-.83,1.8-.83,1.29,0,1.94.74,1.96,2.21v4.08h-1.39v-4c0-.39-.08-.68-.25-.87s-.45-.28-.83-.28c-.56,0-.98.25-1.25.76v4.4h-1.39v-6.18h1.31Z"/><path d="m132.47,39.73c0-.95.22-1.71.66-2.29.44-.58,1.03-.86,1.78-.86.65,0,1.18.23,1.59.68v-3.16h1.39v8.77h-1.26l-.07-.64c-.42.5-.97.75-1.66.75s-1.31-.29-1.75-.87c-.45-.58-.67-1.37-.67-2.38Zm1.39.12c0,.63.12,1.12.36,1.47.24.35.58.53,1.03.53.57,0,.98-.25,1.24-.76v-2.64c-.25-.5-.67-.74-1.23-.74-.45,0-.8.18-1.04.53-.24.36-.37.89-.37,1.61Z"/><path d="m139.07,39.72c0-.6.12-1.15.36-1.63.24-.49.58-.86,1.01-1.12.43-.26.93-.39,1.5-.39.83,0,1.51.27,2.03.8s.8,1.25.84,2.13v.33c0,.61-.11,1.15-.35,1.63-.23.48-.57.85-1,1.11-.44.26-.94.39-1.51.39-.87,0-1.57-.29-2.09-.87-.52-.58-.78-1.35-.78-2.32v-.07Zm1.39.12c0,.64.13,1.13.39,1.49.26.36.63.54,1.1.54s.83-.18,1.09-.55.39-.9.39-1.6c0-.62-.13-1.12-.4-1.48s-.63-.55-1.09-.55-.81.18-1.08.54-.4.9-.4,1.61Z"/><path d="m147.27,36.69l.04.71c.46-.55,1.06-.83,1.8-.83,1.29,0,1.94.74,1.96,2.21v4.08h-1.39v-4c0-.39-.08-.68-.25-.87s-.45-.28-.83-.28c-.56,0-.98.25-1.25.76v4.4h-1.39v-6.18h1.31Z"/></g></g></g></svg>