<?xml version="1.0" encoding="UTF-8"?><svg id="Layer_2" xmlns="http://www.w3.org/2000/svg" viewBox="0 0 117.72 29.2"><defs><style>.cls-1{fill:#003781;}</style></defs><g id="Layer_1-2"><g><path class="cls-1" d="m10.73,15.45h-4.02l2.14-6.99,1.88,6.99Zm-6.1,7.7l1.37-4.6h5.42l1.28,4.59h5.01L12.73,5.65c-.29-1.03-.91-1.51-2-1.51H3.63v1.65h.59c.74,0,1.14.29,1.14.86,0,.37-.08.69-.38,1.54L0,23.15h4.62Z"/><path class="cls-1" d="m23.49,23.15V5.6c0-.92-.54-1.46-1.42-1.46h-4.4v1.65h.29c.74,0,1.05.32,1.05,1.06v16.3h4.48Z"/><path class="cls-1" d="m31.1,23.15V5.6c0-.92-.54-1.46-1.43-1.46h-4.39v1.65h.29c.74,0,1.06.32,1.06,1.06v16.3h4.46Z"/><path class="cls-1" d="m38.91,5.87c0-1.28-.95-2.06-2.56-2.06s-2.57.77-2.57,2.06.97,2.06,2.57,2.06,2.56-.77,2.56-2.06m-.09,17.28v-12.8c0-.91-.54-1.45-1.43-1.45h-4.33v1.62h.26c.74,0,1.05.34,1.05,1.08v11.55h4.45Z"/><path class="cls-1" d="m48.62,16.31v2.77c-.75.77-1.65,1.24-2.42,1.24s-1.08-.39-1.08-1.47.22-1.53,1.02-1.84c.8-.32,1.63-.56,2.48-.69m-6.02-3.33c1.37-.68,2.86-1.06,4.39-1.11,1.2,0,1.63.43,1.63,1.67v.32c-1.82.29-2.39.41-3.42.63-.58.13-1.14.3-1.68.53-1.8.72-2.65,2.11-2.65,4.25,0,2.71,1.18,4.02,3.59,4.02.82,0,1.63-.15,2.4-.45.69-.32,1.34-.73,1.91-1.23v.2c0,.88.45,1.33,1.34,1.33h4.08v-1.52h-.2c-.77,0-1.05-.34-1.05-1.25v-6.79c0-3.62-1.26-4.88-4.88-4.88-1.15,0-2.29.14-3.41.4-1.06.24-2.08.62-3.02,1.14l.99,2.74Z"/><path class="cls-1" d="m60.68,23.15v-9.64c.75-.83,1.51-1.2,2.39-1.2.95,0,1.18.37,1.18,1.81v9.03h4.45v-9.69c0-2.26-.16-2.97-.88-3.73-.59-.66-1.51-1-2.69-1-1.74,0-2.97.54-4.61,2.08v-.57c0-.88-.46-1.34-1.37-1.34h-4.23v1.62h.26c.74,0,1.06.34,1.06,1.08v11.55h4.45Z"/><path class="cls-1" d="m81.89,20.16h-6.2l5.93-8.32v-2.94h-9.31c-1.05,0-1.54.48-1.54,1.54v2.59h1.65v-.25c0-.66.34-.97,1.05-.97h3.2l-6,8.41v2.94h11.19l.02-3Z"/><path class="cls-1" d="m105.23,22.79V6.68c0-1.28-.46-1.72-1.7-1.72h-3.77v1.81h.23c.86,0,1.03.19,1.03,1.23v14.79h4.22Zm1.86,0h4.19v-12.55c0-1.26-.49-1.71-1.71-1.71h-2.47v14.26Zm-7.93,0v-14.25h-2.48c-1.23,0-1.71.45-1.71,1.71v12.54h4.19Zm16.08-8.19c0,7.1-5.11,12.26-12.12,12.26s-12.13-5.16-12.13-12.26,5.12-12.26,12.13-12.26,12.12,5.19,12.12,12.26m2.48,0c0-8.35-6.25-14.6-14.6-14.6s-14.6,6.25-14.6,14.6,6.25,14.6,14.6,14.6,14.6-6.23,14.6-14.6"/></g></g></svg>