<?xml version="1.0" encoding="UTF-8"?><svg id="Layer_2" xmlns="http://www.w3.org/2000/svg" viewBox="0 0 49.11 40.71"><defs><style>.cls-1{fill:#592c82;}</style></defs><g id="Layer_1-2"><path class="cls-1" d="m.3,7.26h5v19.08H.3V7.26Zm6.85,9.52c0-5.44,4.41-9.86,9.86-9.86,2,0,3.86.6,5.41,1.62v-1.28h5v19.08h-5v-1.32c-1.55,1.02-3.41,1.62-5.41,1.62-5.45,0-9.86-4.41-9.86-9.86Zm4.52,0c0,2.94,2.39,5.34,5.34,5.34s5.34-2.39,5.34-5.34-2.39-5.34-5.34-5.34c-2.94,0-5.34,2.39-5.34,5.34Zm17.71,0c0-5.44,4.43-9.87,9.87-9.87.03,0,.06,0,.09,0h9.73v5h-1.25c.82,1.44,1.29,3.1,1.29,4.86,0,4.29-2.76,7.95-6.59,9.3,2.64,1.21,4.47,3.88,4.47,6.96,0,4.23-3.44,7.67-7.67,7.67s-7.67-3.44-7.67-7.67c0-3.06,1.8-5.71,4.4-6.93-3.88-1.33-6.68-5.01-6.68-9.34Zm13.03,16.27c0-1.7-1.38-3.08-3.08-3.08s-3.08,1.38-3.08,3.08,1.38,3.08,3.08,3.08c1.7,0,3.08-1.38,3.08-3.08Zm-8.45-16.27c0,2.91,2.37,5.28,5.28,5.28s5.28-2.37,5.28-5.28-2.37-5.28-5.28-5.28c-2.91,0-5.28,2.37-5.28,5.28ZM2.8,5.6c1.55,0,2.8-1.25,2.8-2.8S4.34,0,2.8,0,0,1.25,0,2.8s1.25,2.8,2.8,2.8Z"/></g></svg>