<?xml version="1.0" encoding="UTF-8"?><svg id="Layer_2" xmlns="http://www.w3.org/2000/svg" viewBox="0 0 209.14 64.37"><defs><style>.cls-1{fill:#fff;}</style></defs><g id="Layer_1-2"><g><path class="cls-1" d="m27.82,47.68l-11.5,13.74,7.58-10.34.39-1.89,3.53-3.01v1.51Zm21.87,1.32l-3.16.95-4.34-5.08-1.41,1.12-4.37-4.19-1.26,1.9-.89-1.44-4.36,4.31-1.9-1.32-3.82,3.73-3.88-3.33L.04,63.97v.4h3.62l16.37-17.17v2.41l-.94,1.7h1.55l-16.5,13.06h20.82l5.41-8.74h-1.42l-2.7,3.6h-.19l-.13-1.34-4.74,3.27,10.47-13.31-2.58,1.42s-.56-.65,5.08-5.86l.47,1.12,1.38-1.12v6.29l-1.72,1.29.21,2.41-5.47,8.74-3.79,2.21h4.18l9.05-13.71-1.03-1.03,4.35-3.45.47,1.34-1.59.9.73,1.59s-2.57,4.25-6.5,8.14l-4.14,6.22h6.63l8.01-12.25,1.02,1.02,1.57-2.18.65,1.25-3.58,3.53v2.11l-6.46,6.52h25.77v-.29l-14.68-15.08ZM2.15,2.15h60.02v57.57l2.15,2.01V0H0v61.73l2.15-2.01V2.15Z"/><path class="cls-1" d="m163.26,59.09c-.41-.15-.72-.28-.92-.41-.2-.12-.34-.26-.43-.41-.08-.15-.13-.33-.13-.56,0-.31.12-.56.35-.73.23-.18.55-.26.96-.26.52,0,1.05.12,1.6.35l.24-.67c-.55-.24-1.16-.36-1.82-.36s-1.14.15-1.53.45c-.38.3-.58.71-.58,1.22s.13.88.4,1.18c.26.3.7.56,1.32.78.44.16.77.3.99.42.22.12.37.26.46.41.09.15.14.33.14.56,0,.35-.13.62-.39.82-.26.19-.65.29-1.16.29-.32,0-.63-.03-.95-.1-.32-.07-.62-.16-.89-.27v.74c.42.2,1.03.3,1.81.3.73,0,1.3-.16,1.72-.49.42-.33.64-.78.64-1.37,0-.45-.13-.82-.39-1.11-.26-.29-.74-.55-1.44-.8m8.68,1.36c0,.56-.15.98-.45,1.28-.3.3-.73.45-1.3.45s-1.03-.15-1.34-.45c-.3-.3-.45-.72-.45-1.28v-4.33h-.77v4.28c0,.76.22,1.36.66,1.8.44.44,1.05.65,1.85.65s1.43-.22,1.88-.65c.46-.43.69-1.03.69-1.78v-4.29h-.77v4.32Zm-12.07-17.97h-3.18v-7.62h3.01c1.72,0,2.96.29,3.74.87.78.58,1.17,1.53,1.17,2.85s-.38,2.28-1.14,2.92c-.76.65-1.96.97-3.6.97m3.14,1.32c2.67-.93,4.01-2.71,4.01-5.34,0-1.88-.58-3.29-1.75-4.23-1.17-.94-2.97-1.4-5.42-1.4h-5.46v19.93h2.32v-8.29h4.16l4.83,8.29h2.74l-5.41-8.96Zm-5.47,16.13c0,.19,0,.51.02.95.02.44.03.7.04.79h-.04l-3.62-5.55h-.87v6.64h.71v-3.77c0-.54-.03-1.14-.07-1.8h.03l3.63,5.57h.88v-6.64h-.72v3.81Zm-8.31,2.83h.77v-6.64h-.77v6.64Zm-18.36,0h3.7v-.69h-2.93v-2.44h2.75v-.68h-2.75v-2.14h2.93v-.69h-3.7v6.64Zm-4.51-2.37c-.18.49-.32.97-.43,1.46-.1-.47-.24-.95-.42-1.44l-1.53-4.29h-.82l2.38,6.64h.76l2.39-6.64h-.83l-1.52,4.27Zm15.4-.46c0,.19,0,.51.02.95.02.44.03.7.04.79h-.04l-3.62-5.55h-.87v6.64h.71v-3.77c0-.54-.02-1.14-.07-1.8h.03l3.63,5.57h.88v-6.64h-.72v3.81Zm29.88-7.18h2.32v-19.93h-2.32v19.93Zm29.33,3.96c.5,0,1,.12,1.51.35l.33-.66c-.52-.25-1.13-.38-1.83-.38-.65,0-1.22.14-1.7.42-.48.28-.85.68-1.11,1.19-.26.51-.38,1.11-.38,1.8,0,1.09.27,1.94.8,2.53.53.59,1.28.89,2.26.89.68,0,1.24-.08,1.7-.26v-.68c-.59.17-1.12.25-1.58.25-.75,0-1.34-.24-1.74-.71-.41-.47-.61-1.14-.61-2.01s.21-1.51.63-2c.42-.48,1-.73,1.73-.73m4.28,6.04h3.7v-.69h-2.93v-2.44h2.75v-.68h-2.75v-2.14h2.93v-.69h-3.7v6.64Zm1.16-10h2.73l-8.32-11.27,8.01-8.66h-2.74l-9.04,9.88v-9.88h-2.32v19.93h2.32v-7.81l2.08-1.85,7.27,9.66Zm-28.85,6.58h-1.06v-2.54h1c.57,0,.99.1,1.25.29.26.19.39.51.39.95s-.13.76-.38.97c-.25.22-.65.32-1.2.32m2.38-1.34c0-.63-.19-1.1-.58-1.41-.39-.31-.99-.47-1.8-.47h-1.82v6.64h.77v-2.76h1.39l1.61,2.76h.91l-1.8-2.98c.89-.31,1.34-.9,1.34-1.78m9.55-13.87c-.79-.85-2.22-1.65-4.31-2.4-1.25-.45-2.17-.85-2.77-1.22-.6-.37-1.03-.77-1.29-1.21-.25-.44-.38-1.01-.38-1.7,0-.94.34-1.67,1.04-2.19.69-.53,1.65-.79,2.88-.79,1.55,0,3.15.34,4.8,1.04l.72-2.02c-1.66-.73-3.49-1.09-5.47-1.09s-3.43.46-4.58,1.36c-1.15.91-1.73,2.13-1.73,3.67s.4,2.65,1.19,3.56c.79.91,2.12,1.7,3.97,2.36,1.33.47,2.32.9,2.96,1.27.65.37,1.11.78,1.39,1.22.28.44.42,1.01.42,1.7,0,1.05-.39,1.86-1.17,2.45-.78.59-1.94.88-3.49.88-.95,0-1.9-.1-2.86-.3-.96-.2-1.85-.47-2.67-.82v2.24c1.27.61,3.09.91,5.45.91,2.18,0,3.91-.49,5.18-1.47,1.27-.98,1.91-2.35,1.91-4.1,0-1.36-.39-2.47-1.18-3.33m4.84,15.8c0,.19,0,.51.02.95.02.44.03.7.04.79h-.04l-3.62-5.55h-.87v6.64h.71v-3.77c0-.54-.02-1.14-.07-1.8h.04l3.63,5.57h.88v-6.64h-.72v3.81Zm-10.64.02l.78-2.06c.12-.35.22-.67.29-.96.11.38.21.7.31.96l.77,2.06h-2.15Zm.75-3.86l-2.62,6.66h.78l.82-2.11h2.66l.83,2.11h.8l-2.61-6.66h-.65Zm-53.29-20.98h.11c-.13,1.73-.19,3.33-.19,4.8v12.84h2.32v-19.93h-3.46l-6.37,16.44h-.11l-6.31-16.44h-3.49v19.93h2.14v-12.68c0-1.93-.06-3.59-.19-4.99h.11l6.76,17.67h1.87l6.82-17.64Zm-43.99,21.69h2.1v5.95h.77v-5.95h2.1v-.69h-4.97v.69Zm-5.35,3.15l.78-2.06c.12-.35.22-.67.29-.96.11.38.21.7.31.96l.77,2.06h-2.15Zm.75-3.86l-2.63,6.66h.78l.82-2.11h2.66l.83,2.11h.8l-2.61-6.66h-.65Zm67.39-5.41h-8.79v-7.33h8.26v-2.04h-8.26v-6.42h8.79v-2.06h-11.11v19.93h11.11v-2.07Zm-54.61,9.27l.78-2.06c.12-.35.22-.67.29-.96.11.38.21.7.31.96l.77,2.06h-2.15Zm.75-3.86l-2.62,6.66h.78l.82-2.11h2.66l.83,2.11h.8l-2.61-6.66h-.65Zm-19.49,5.32c-.46.45-1.15.68-2.07.68h-.94v-5.3h1.12c.86,0,1.5.22,1.94.66.43.44.65,1.09.65,1.96s-.23,1.55-.69,2.01m-1.75-5.29h-2.03v6.64h1.84c1.12,0,1.97-.29,2.57-.87.59-.58.89-1.42.89-2.51,0-1.03-.29-1.83-.86-2.4-.57-.57-1.37-.86-2.41-.86m-.44-14.69c0-1.63-.07-3.43-.22-5.4h.11l10.89,16.73h2.64v-19.93h-2.17v11.44c-.02.57,0,1.52.07,2.86.06,1.33.1,2.12.12,2.37h-.11l-10.86-16.66h-2.62v19.93h2.14v-11.33Zm45.82,21.33h.77v-6.64h-.77v6.64Zm-11.25-1.35c-.46.45-1.15.68-2.07.68h-.94v-5.3h1.12c.86,0,1.5.22,1.94.66.43.44.65,1.09.65,1.96s-.23,1.55-.69,2.01m-1.75-5.29h-2.03v6.64h1.84c1.12,0,1.97-.29,2.57-.87.59-.58.89-1.42.89-2.51,0-1.03-.29-1.83-.86-2.4-.57-.57-1.37-.86-2.41-.86m1.14-10.4v-12.9h-2.32v12.98c0,1.67-.45,2.96-1.36,3.85-.91.9-2.2,1.34-3.89,1.34s-3.1-.45-4.01-1.34c-.91-.89-1.36-2.17-1.36-3.83v-13h-2.32v12.84c0,2.29.66,4.09,1.97,5.4,1.31,1.31,3.17,1.96,5.57,1.96s4.28-.65,5.66-1.95c1.37-1.3,2.06-3.09,2.06-5.36m6.69,13.61h-1.06v-2.54h1c.57,0,.99.1,1.25.29.26.19.39.51.39.95s-.13.76-.38.97c-.25.22-.65.32-1.2.32m2.38-1.34c0-.63-.19-1.1-.58-1.41-.39-.31-.99-.47-1.8-.47h-1.82v6.64h.77v-2.76h1.39l1.61,2.76h.91l-1.8-2.98c.89-.31,1.34-.9,1.34-1.78"/></g></g></svg>