<?xml version="1.0" encoding="UTF-8"?><svg id="Layer_2" xmlns="http://www.w3.org/2000/svg" viewBox="0 0 291.3 404.91"><defs><style>.cls-1{stroke-linejoin:round;}.cls-1,.cls-2,.cls-3{fill:none;stroke:#000;stroke-width:2.5px;}.cls-1,.cls-3{stroke-linecap:round;}.cls-2,.cls-3{stroke-miterlimit:10;}.cls-3{stroke-dasharray:0 8;}</style></defs><g id="Layer_1-2"><g><polyline class="cls-1" points="235.37 248.43 235.37 55.51 201.33 21.47 1.25 21.47 1.25 339.18 150.34 339.18"/><polygon class="cls-1" points="235.37 55.51 201.33 21.47 201.33 55.51 235.37 55.51"/><polyline class="cls-1" points="149.76 305.82 30.93 305.82 30.93 184.12"/><path class="cls-1" d="m224.79,389.83c36.04,0,65.26-29.22,65.26-65.26s-29.22-65.26-65.26-65.26-65.26,29.22-65.26,65.26,29.22,65.26,65.26,65.26"/><path class="cls-1" d="m244.6,302.61v-2.91c0-10.83-11.88-16.33-19.91-16.33h-.91c-8.03,0-19.91,5.25-19.91,16.33v2.91c-1.61,0-2.91,1.3-2.91,2.91v5.82c0,1.61,1.3,2.91,2.91,2.91,0,5.82,2.91,11.63,2.91,11.63,2.91,5.82,6.21,11.64,17.45,11.64s14.54-5.82,17.45-11.64c0,0,2.91-5.82,2.91-11.63,1.61,0,2.91-1.3,2.91-2.91v-5.82c0-1.61-1.3-2.91-2.91-2.91Zm-19.81,45.99v15.38m10.58-.02l2.65-15.83c4.73,0,13.33.55,18.52,2.61m-42.34,13.21l-2.67-15.83c-4.82,0-13.21.55-18.5,2.61"/><line class="cls-3" x1="169.08" y1="240.07" x2="193.94" y2="207.03"/><line class="cls-3" x1="137.82" y1="226.47" x2="154.45" y2="241.85"/><line class="cls-3" x1="102.69" y1="261.92" x2="126.38" y2="227.06"/><line class="cls-3" x1="79.26" y1="244.44" x2="92.75" y2="261.92"/><line class="cls-3" x1="32.34" y1="303.18" x2="65.42" y2="246.11"/><path class="cls-2" d="m67.55,240.63c3.14,1.82,7.16.74,8.98-2.41s.74-7.17-2.41-8.98c-3.14-1.82-7.16-.74-8.98,2.41-1.82,3.14-.74,7.16,2.41,8.98"/><path class="cls-2" d="m96.02,279.64c3.14,1.82,7.16.74,8.98-2.41,1.82-3.14.74-7.17-2.41-8.98s-7.16-.74-8.98,2.41c-1.82,3.14-.74,7.16,2.41,8.98"/><path class="cls-2" d="m128.05,220.64c3.14,1.82,7.16.74,8.98-2.41,1.82-3.14.74-7.17-2.41-8.98s-7.16-.74-8.98,2.41-.74,7.16,2.41,8.98"/><path class="cls-2" d="m160.31,257.37c3.14,1.82,7.16.74,8.98-2.41,1.82-3.14.74-7.17-2.41-8.98-3.14-1.82-7.16-.74-8.98,2.41-1.82,3.14-.74,7.16,2.41,8.98"/><path class="cls-2" d="m198.97,202.82c3.14,1.82,7.16.74,8.98-2.41s.74-7.17-2.41-8.98c-3.14-1.82-7.16-.74-8.98,2.41s-.74,7.16,2.41,8.98"/><path class="cls-2" d="m32.95,92.43c9.23,5.33,21.04,2.17,26.37-7.07,5.33-9.23,2.17-21.04-7.07-26.37-9.23-5.33-21.04-2.17-26.37,7.07-5.33,9.23-2.17,21.04,7.07,26.37"/><line class="cls-1" x1="77.41" y1="123.92" x2="172.33" y2="123.92"/><line class="cls-1" x1="77.41" y1="137.45" x2="172.33" y2="137.45"/><line class="cls-1" x1="77.41" y1="68.95" x2="172.33" y2="68.95"/><line class="cls-1" x1="77.41" y1="82.48" x2="172.33" y2="82.48"/><path class="cls-3" d="m200.3,403.66c-19.61-5.17-35.16-19.96-46.76-35.99"/><path class="cls-3" d="m204.12,1.25c21.01,7.1,36.88,24.79,48.42,43.04"/><polyline class="cls-2" points="32.93 75.28 39.67 82.03 52.81 68.88"/><path class="cls-2" d="m32.95,148.67c9.23,5.33,21.04,2.17,26.37-7.07,5.33-9.23,2.17-21.04-7.07-26.37-9.23-5.33-21.04-2.17-26.37,7.07-5.33,9.23-2.17,21.04,7.07,26.37"/><polyline class="cls-2" points="32.93 131.52 39.67 138.26 52.81 125.12"/></g></g></svg>