<?xml version="1.0" encoding="UTF-8"?><svg id="Layer_2" xmlns="http://www.w3.org/2000/svg" viewBox="0 0 75.83 22.09"><defs><style>.cls-1{fill:#009ae4;}.cls-2{fill:#221f1f;}</style></defs><g id="Layer_1-2"><g><g><path class="cls-2" d="m44.64,18.53c1.13.42,2.09.62,3.04.76v2.8c-1.08,0-2.05-.33-2.7-.54s-1.66-.74-2.53-1.14c-1.36.79-2.88,1.34-4.52,1.51-4.87.51-9.15-2.07-11.02-6.62-1.95-4.76-.43-10.38,3.58-13.36,3.75-2.78,10.65-3.02,14.54,2.27,2.85,3.88,2.96,9.37.22,13.43-.17.25-.33.49-.61.89Zm-2.37-2.02s.07-.07.09-.1c2.14-2.68,2.51-6.55.85-9.55-1.44-2.6-3.63-4.1-6.67-4-3.41.11-5.62,2.01-6.87,5.07-.7,1.69-.78,3.47-.31,5.24,5.02-1.62,9.14.15,12.91,3.36Zm-11.63-.64c1.87,3.04,7.43,4.46,9.18,2.34-2.38-2.34-7.51-3.66-9.18-2.34Z"/><path class="cls-2" d="m49.6.19c2.52.11,5.05.03,7.51.38,2.6.37,4.2,2.39,4.39,5.02.16,2.19-.29,3.27-1.78,4.7.58.49,1.22.92,1.72,1.48,2.47,2.73,1.48,7.63-1.83,9.29-1.05.52-2.15.79-3.3.81-2.2.03-4.39.01-6.59.01-.04,0-.08,0-.13-.01V.19Zm3.05,11.91v6.83c1.41,0,2.82.09,4.21-.02,1.64-.13,2.82-1.55,2.86-3.2.03-1.53-1.09-3.23-2.38-3.37-1.54-.17-3.1-.16-4.68-.24Zm0-2.76c1.23-.06,2.45-.05,3.66-.21.8-.1,1.43-.6,1.8-1.38.89-1.9.14-3.95-1.77-4.39-1.18-.27-2.44-.18-3.68-.25v6.22Z"/><path class="cls-2" d="m64.57,21.87V.31h11.26v2.87h-8.2v6.35h8.2v2.88h-8.19v6.57h8.2v2.88h-11.26Z"/></g><g><path class="cls-1" d="m1.23,17.11C.37,15.99-.07,14.8,0,13.43c.06-1.06.49-1.97,1.02-2.86,1.52-2.57,3-5.17,4.5-7.76C6.92.39,9.57-.46,11.96.73c2.38,1.19,3.31,3.89,2.22,6.43-.06.15-.13.29-.23.49-.3-.52-.57-1-.86-1.48-.41-.67-.77-1.38-1.26-1.99-1.29-1.63-2.88-1.47-3.9.33-1.54,2.72-3.07,5.44-4.62,8.15-.24.42-.63.74-.93,1.13-.69.88-.85,1.36-1.15,3.33Z"/><path class="cls-1" d="m14.38,15.98c.97,0,1.88.04,2.78-.01.68-.04,1.39-.09,2.03-.29,1.29-.4,1.81-1.6,1.18-2.79-.78-1.48-1.68-2.9-2.53-4.35-.85-1.45-1.72-2.9-2.54-4.37-.24-.43-.32-.95-.52-1.41-.42-1-1.12-1.79-2.04-2.37-.05-.03-.1-.07-.2-.14,1.02-.17,1.95-.09,2.84.28,1.09.44,1.96,1.14,2.56,2.18,1.6,2.79,3.22,5.58,4.83,8.37,1.4,2.42.86,5.12-1.33,6.59-2.24,1.51-5.01,1-6.72-1.22-.1-.13-.19-.27-.33-.46Z"/><path class="cls-1" d="m21.61,18.43c-.35.59-.56,1.05-.87,1.45-1.03,1.36-2.4,2.07-4.13,2.07-3.24,0-6.47,0-9.71,0-2.7,0-4.78-1.84-4.96-4.39-.19-2.68,1.58-4.85,4.29-5.24.21-.03.43-.05.7-.08-.38.66-.76,1.26-1.08,1.89-.37.72-.81,1.44-1.02,2.22-.43,1.53.48,2.67,2.07,2.66,3.22,0,6.43-.06,9.65-.06.55,0,1.1.19,1.66.26,1.15.14,2.23-.11,3.41-.78Z"/><path class="cls-1" d="m15.2,11.46h-3.43c-.56-.95-1.13-1.92-1.69-2.89-.59-1.02-1.25-2.01-1.38-3.23-.06-.58.1-1.04.64-1.33.53-.28,1.01-.14,1.37.25.42.46.79.97,1.12,1.5,1.11,1.83,2.2,3.68,3.29,5.52.03.05.05.1.08.18Z"/><path class="cls-1" d="m9.6,9.25c.58,1.01,1.15,1.98,1.72,2.98-.82,1.41-1.59,2.85-2.47,4.22-.37.59-.92,1.09-1.44,1.57-.35.32-.81.34-1.25.1-.58-.32-.83-.86-.5-1.59.57-1.29,1.23-2.54,1.9-3.78.6-1.11,1.26-2.19,1.9-3.29.03-.06.07-.12.13-.21Z"/><path class="cls-1" d="m10.51,15.19c.58-1,1.14-1.97,1.77-3.06,2.06.1,4.16.13,6.26.34,1,.1,1.38.66,1.37,1.38,0,.61-.38.96-.91,1.07-.66.14-1.35.21-2.03.23-2.1.04-4.21.05-6.32.07-.03,0-.06,0-.13-.02Z"/></g></g></g></svg>