<?xml version="1.0" encoding="UTF-8"?><svg id="Layer_2" xmlns="http://www.w3.org/2000/svg" xmlns:xlink="http://www.w3.org/1999/xlink" viewBox="0 0 128.72 51.75"><defs><style>.cls-1{fill:#fff;}.cls-2{fill:#4d5863;}.cls-3{fill:url(#radial-gradient);}</style><radialGradient id="radial-gradient" cx="336.67" cy="544.1" fx="336.67" fy="544.1" r="53.79" gradientTransform="translate(306.43 606.71) rotate(-180) scale(.85 1.1)" gradientUnits="userSpaceOnUse"><stop offset="0" stop-color="#77aadb"/><stop offset=".53" stop-color="#5194d1"/><stop offset=".9" stop-color="#316db3"/></radialGradient></defs><g id="Layer_1-2"><g><g><path class="cls-2" d="m64.87,8.68l-5.35,14.44h2.75l1.12-3.23h5.31l1.12,3.23h2.75l-5.37-14.44h-2.34Zm-.74,9.07l1.91-5.52,1.91,5.52h-3.83Zm18.68.69v-10.03h-2.53v4.99l-.11-.1c-.66-.63-1.49-.95-2.49-.95-.85,0-1.6.23-2.23.68-.63.45-1.12,1.09-1.45,1.9-.33.81-.5,1.76-.5,2.82v.2c0,1.02.17,1.94.51,2.75.34.81.83,1.46,1.46,1.92.63.46,1.37.7,2.21.7.92,0,1.63-.21,2.27-.74.2-.17.41-.46.48-.71l.36,1.25h2.55l-.08-.39c-.29-1.41-.43-2.85-.43-4.3Zm-2.54,1.59c-.42.8-1.07,1.2-2,1.2-.77,0-1.32-.29-1.69-.89-.37-.6-.56-1.4-.56-2.38v-.2c0-.98.19-1.79.57-2.4.37-.61.93-.91,1.7-.91.92,0,1.57.38,1.98,1.17v.03s0,4.39,0,4.39Zm38.5-6.96c-.67-.43-1.51-.65-2.49-.65-.9,0-1.72.22-2.44.67-.72.44-1.29,1.08-1.7,1.89-.41.81-.62,1.76-.62,2.83v.39c0,.95.2,1.81.61,2.58.4.76.99,1.37,1.75,1.81.76.44,1.65.66,2.66.66.95,0,1.78-.19,2.45-.56.67-.37,1.21-.84,1.59-1.4l.03-.04-1.36-1.31-.04.05c-.63.82-1.48,1.24-2.53,1.24-.51,0-.96-.11-1.34-.34-.38-.22-.69-.54-.91-.93-.2-.36-.34-.78-.39-1.24v-.07s6.71,0,6.71,0v-1.06c0-1.01-.17-1.92-.5-2.69-.33-.77-.84-1.39-1.51-1.82Zm-.47,3.73h-4.2v-.07c.13-.7.36-1.25.71-1.65.37-.42.85-.63,1.46-.63.69,0,1.18.2,1.5.62.32.42.5.96.53,1.61v.12Zm-10.29.68c-.55-.26-1.25-.48-2.09-.66-.53-.12-.95-.24-1.25-.36-.29-.12-.5-.26-.61-.42-.12-.15-.17-.33-.17-.55,0-.35.14-.64.41-.87.28-.23.68-.35,1.2-.35.37,0,.68.07.94.21.25.14.45.32.58.54.13.22.2.47.2.74v.06h2.48v-.06c0-.64-.17-1.23-.51-1.74-.34-.51-.83-.92-1.46-1.21-.63-.29-1.37-.44-2.22-.44-.79,0-1.51.15-2.11.44-.61.29-1.09.69-1.42,1.18-.33.49-.5,1.04-.5,1.62,0,.85.33,1.54.98,2.04.64.49,1.56.87,2.74,1.12.58.12,1.03.26,1.35.4.31.14.52.3.62.46.11.16.16.36.16.59,0,.36-.15.64-.45.86-.31.22-.75.33-1.31.33s-1.03-.14-1.42-.4c-.39-.27-.59-.67-.61-1.25v-.06h-2.4v.06c0,.6.18,1.18.52,1.72.35.54.86.99,1.52,1.33.66.34,1.46.51,2.36.51.83,0,1.57-.14,2.21-.41.64-.27,1.14-.66,1.49-1.15.35-.49.53-1.06.53-1.68s-.15-1.16-.46-1.58c-.3-.42-.74-.76-1.29-1.02Zm20.67-4.9c-.09-.03-.22-.06-.4-.09-.18-.03-.33-.04-.47-.04-.53,0-.98.14-1.43.41-.41.23-.96.87-.96.87l-.05-1.12h-2.35v10.45h2.42s0-7.05,0-7.05c.36-.76,1.16-1.15,2.21-1.15.31,0,.63.03.96.08h.07s.02-2.34.02-2.34l-.04-.02Zm-39.31,7.22l-1.97-7.25h-2.63l3.48,10.58h2.2l3.78-10.58h-2.63l-2.24,7.25Zm9.09-10.96c-.24-.25-.57-.37-.97-.37s-.73.13-.97.37c-.24.25-.36.57-.36.95s.12.7.36.94c.24.24.57.36.97.36s.73-.12.97-.37c.24-.24.36-.56.36-.93s-.12-.7-.36-.95h0Zm-2.19,14.28h2.41v-10.58h-2.41v10.58Z"/><path class="cls-2" d="m126.87,37.68c-.27-.39-.68-.73-1.24-1-.56-.28-1.29-.52-2.19-.72-.67-.15-1.19-.3-1.55-.45-.36-.16-.62-.34-.76-.53-.14-.2-.22-.45-.22-.75s.08-.56.23-.82c.16-.25.4-.46.73-.61.33-.15.74-.23,1.23-.23.47,0,.88.09,1.23.28.35.19.62.43.81.72.17.28.27.56.28.86h1.74c-.01-.58-.17-1.12-.48-1.6-.32-.5-.79-.89-1.4-1.19-.61-.29-1.34-.44-2.16-.44-.77,0-1.46.14-2.06.42-.59.28-1.06.66-1.38,1.12-.32.46-.49.98-.49,1.54,0,.82.32,1.47.95,1.93.64.47,1.61.84,2.88,1.1.68.14,1.21.31,1.57.49.37.19.62.4.75.63.13.23.2.5.2.81s-.09.59-.28.84c-.19.24-.46.44-.82.58-.35.14-.78.21-1.27.21-.42,0-.83-.07-1.21-.2-.38-.14-.71-.36-.97-.67-.25-.3-.39-.68-.43-1.15h-1.74c.01.57.18,1.12.51,1.62.34.53.84.96,1.49,1.28.66.32,1.45.49,2.35.49.82,0,1.55-.13,2.17-.4.62-.26,1.1-.63,1.44-1.1.34-.47.51-1.01.51-1.62,0-.56-.14-1.05-.4-1.44Zm-45.63,2.08v-5.02c0-.77-.17-1.42-.5-1.95-.33-.53-.79-.93-1.38-1.19-.59-.26-1.29-.4-2.07-.4-.82,0-1.56.15-2.2.46-.64.3-1.14.7-1.49,1.18-.33.46-.51.94-.52,1.42h1.74c.01-.29.12-.57.3-.83.2-.27.49-.49.85-.65.36-.16.77-.24,1.22-.24.74,0,1.32.2,1.72.58.4.39.6.92.6,1.59v.92h-1.88c-.98,0-1.84.13-2.55.4-.71.26-1.27.66-1.65,1.18-.38.52-.58,1.16-.58,1.9,0,.58.15,1.11.44,1.58.29.47.72.85,1.26,1.13.54.28,1.17.42,1.88.42.61,0,1.18-.12,1.69-.36.51-.24.96-.56,1.32-.95l.09-.1.02.14c.06.46.14.82.24,1.07h1.84v-.08c-.12-.28-.21-.63-.28-1.02-.07-.4-.1-.8-.1-1.18Zm-1.74-.63c-.14.29-.35.57-.62.82-.27.25-.6.45-.97.61-.37.15-.78.23-1.21.23s-.83-.08-1.15-.25c-.31-.17-.56-.4-.72-.69-.16-.29-.25-.62-.25-.98,0-.68.3-1.2.88-1.54.57-.34,1.4-.51,2.47-.51h1.58v2.32Zm35.24-6.44l-.1-.13c-.72-.9-1.74-1.36-3.03-1.36-.85,0-1.59.23-2.22.68-.63.45-1.12,1.09-1.46,1.9-.34.82-.51,1.78-.51,2.85v.21c0,1.04.17,1.97.52,2.79.34.81.83,1.46,1.46,1.92.63.46,1.37.69,2.2.69,1.25,0,2.25-.42,2.96-1.24l.11-.13v1.1c0,.94-.26,1.68-.78,2.19-.52.51-1.24.77-2.13.77-1.12,0-2.09-.48-2.89-1.43l-.88.99c.29.41.66.75,1.11,1.02.47.27.95.48,1.44.6.49.12.95.19,1.36.19.89,0,1.68-.18,2.36-.52.67-.34,1.21-.85,1.58-1.51.38-.66.57-1.46.57-2.38v-10.48h-1.57l-.09,1.29Zm-.09,6.51c-.55,1.07-1.43,1.62-2.61,1.62-.65,0-1.2-.18-1.63-.53-.43-.35-.76-.83-.96-1.43-.2-.59-.31-1.27-.31-2.02v-.21c0-.75.1-1.43.31-2.03.21-.61.53-1.09.97-1.45.44-.36.99-.54,1.65-.54.61,0,1.13.14,1.56.42.43.28.77.67,1.03,1.15v.03s0,4.98,0,4.98Zm-46.9-3.43c.85-.33,1.53-.84,2.01-1.5.48-.66.72-1.44.72-2.32,0-1.38-.43-2.45-1.29-3.18-.86-.73-2.12-1.11-3.73-1.11h-5.09v14.37h1.8v-5.88h3.83l.02.03,3.13,5.84h1.97v-.04l-3.43-6.21.07-.03Zm-2.25-1.03h-3.33v-5.64h3.28c1.07,0,1.89.25,2.41.75.53.5.8,1.21.8,2.1,0,.52-.12,1-.36,1.42-.24.42-.6.76-1.08,1-.47.24-1.05.37-1.72.37Zm35.99-3.55c-.64,0-1.24.13-1.77.39-.53.26-1,.63-1.38,1.11l-.11.13-.06-1.43h-1.64v10.65h1.73v-7.67c.28-.53.65-.96,1.11-1.28.46-.32.99-.48,1.58-.48.73,0,1.29.19,1.65.58.37.38.55,1,.55,1.84v7.02h1.73v-7c0-2.59-1.11-3.85-3.39-3.85Zm-9.15-3.99c-.33,0-.58.09-.76.28-.18.19-.27.43-.27.71s.09.52.27.7c.18.18.43.27.76.27s.58-.09.77-.27.28-.42.28-.7-.09-.53-.28-.71c-.18-.19-.44-.28-.77-.28Zm-.88,14.84h1.73v-10.91h-1.73v10.91Zm-3.33-1.28c-.62.09-1.07.01-1.37-.24-.23-.19-.34-.54-.34-1.08v-6.77h2.28v-1.28h-2.28v-2.62h-1.73v2.62l-1.19.26v1.01h1.19v6.76c0,.99.22,1.72.66,2.16.44.44,1.03.66,1.76.66.5,0,1.22-.06,1.62-.18v-1.36c-.1.02-.47.04-.6.06Z"/></g><g><path class="cls-3" d="m25.87,0c-1.66,0-3.06,2.3-4.63,2.61-1.61.32-3.79-1.26-5.28-.65-1.51.63-1.93,3.29-3.27,4.19-1.35.9-3.97.28-5.12,1.43-1.14,1.15-.52,3.77-1.43,5.12-.9,1.34-3.56,1.76-4.19,3.27-.62,1.48.96,3.66.64,5.27-.31,1.57-2.61,2.97-2.61,4.63s2.3,3.07,2.61,4.63c.32,1.61-1.26,3.79-.64,5.28.62,1.51,3.29,1.93,4.19,3.27.9,1.35.28,3.97,1.43,5.12,1.15,1.15,3.77.52,5.12,1.43,1.34.9,1.76,3.56,3.27,4.19,1.48.61,3.66-.96,5.27-.64,1.56.31,2.97,2.61,4.63,2.61s3.06-2.3,4.63-2.61c1.61-.32,3.79,1.26,5.27.64,1.51-.63,1.93-3.29,3.27-4.19,1.35-.91,3.97-.28,5.12-1.43,1.14-1.15.52-3.77,1.43-5.12.9-1.34,3.56-1.76,4.19-3.27.61-1.48-.96-3.66-.64-5.28.31-1.57,2.61-2.97,2.61-4.63s-2.3-3.06-2.61-4.63c-.32-1.61,1.26-3.79.64-5.27-.62-1.51-3.29-1.93-4.19-3.28-.9-1.35-.28-3.97-1.43-5.12-1.15-1.14-3.77-.52-5.12-1.43-1.34-.9-1.76-3.56-3.27-4.19-1.48-.61-3.66.96-5.27.65-1.56-.31-2.97-2.61-4.63-2.61Z"/><path class="cls-1" d="m17.28,16.48l-5.84,15.77h3.6s1-3.08,1-3.08h5.69s1.01,3.08,1.01,3.08h3.6s-5.86-15.77-5.86-15.77h-3.19Zm-.36,10l1.96-6.41,1.97,6.41h-3.93Zm20.3-.81l.08-.04c.87-.41,1.54-.97,1.99-1.67.45-.7.69-1.62.69-2.75,0-1.01-.23-1.88-.68-2.58-.45-.7-1.11-1.24-1.96-1.6-.85-.36-1.88-.55-3.05-.55h-5.82s0,15.77,0,15.77h3.28s0-5.69,0-5.69h2.44s2.79,5.69,2.79,5.69h3.55s0-.05,0-.05l-3.31-6.52Zm-1.14-2.43c-.41.41-1.01.62-1.79.62h-2.55s0-4.69,0-4.69h2.55c.78,0,1.39.21,1.79.62.41.41.61,1,.61,1.73,0,.72-.21,1.3-.62,1.71Z"/></g></g></g></svg>